<?xml version="1.0" encoding="utf-8"?>
<!-- Generator: Adobe Illustrator 21.0.0, SVG Export Plug-In . SVG Version: 6.00 Build 0)  -->
<svg version="1.1"
	 id="svg16119" inkscape:version="0.92.2 (5c3e80d, 2017-08-06)" sodipodi:docname="Bandai (Print).svg" xmlns:cc="http://creativecommons.org/ns#" xmlns:dc="http://purl.org/dc/elements/1.1/" xmlns:inkscape="http://www.inkscape.org/namespaces/inkscape" xmlns:rdf="http://www.w3.org/1999/02/22-rdf-syntax-ns#" xmlns:sodipodi="http://sodipodi.sourceforge.net/DTD/sodipodi-0.dtd" xmlns:svg="http://www.w3.org/2000/svg"
	 xmlns="http://www.w3.org/2000/svg" xmlns:xlink="http://www.w3.org/1999/xlink" x="0px" y="0px" viewBox="0 0 36.9 36"
	 style="enable-background:new 0 0 36.9 36;" xml:space="preserve">
<style type="text/css">
	.st0{fill:#FED136;}
</style>
<sodipodi:namedview  bordercolor="#666666" borderopacity="1.0" id="base" inkscape:current-layer="layer1" inkscape:cx="302.46448" inkscape:cy="546.68226" inkscape:document-units="px" inkscape:pageopacity="0.0" inkscape:pageshadow="2" inkscape:window-height="705" inkscape:window-maximized="1" inkscape:window-width="1366" inkscape:window-x="-8" inkscape:window-y="-8" inkscape:zoom="0.35" pagecolor="#ffffff" showgrid="false" units="px">
	</sodipodi:namedview>
<g id="layer1" transform="translate(0,-39.064315)" inkscape:groupmode="layer" inkscape:label="Layer 1">
	<path id="path20388" class="st0" d="M3.7,40.6c-1.2,0-2.1,0.9-2.1,2.1v28.7c0,1.2,0.9,2.1,2.1,2.1h29.5c1.2,0,2.1-0.9,2.1-2.1V42.7
		c0-1.2-0.9-2.1-2.1-2.1H3.7z M5,45.7h5.6c0,0,0.8,0,1.4,0.3c0.6,0.3,1,0.8,1,0.8s0.4,0.6,0.5,1.6c0,0.8-0.4,1.5-0.4,1.5
		s-0.1,0.3-0.4,0.5c-0.3,0.2-0.7,0.3-0.7,0.3s0.6,0.1,1,0.7c0.3,0.4,0.4,0.5,0.5,0.9c0.1,0.5,0.1,1,0.1,1s0.1,0.6-0.3,1.3
		c-0.5,0.9-1.2,1.2-1.2,1.2s-0.4,0.2-1,0.4c-0.6,0.1-1.5,0.1-1.5,0.1H5V45.7z M23.7,45.7h2.6l3.3,5.8l0.2,0.3v-6.1h2.5v10.7h-2.6
		l-3.3-5.6l-0.2-0.4v6h-2.6V45.7z M17.1,45.7h2.6l3.7,10.7h-2.7L20,53.9l-1.4-4.5L18.5,49l-0.1,0.5L16.9,54h2.6v2.3h-6.1L17.1,45.7z
		 M9.1,47.8l-1.6,0v6.3h1.9c0.7,0,1.5-0.2,1.5-1.1v0c0-1-0.9-1.1-1.5-1.1H8.4v-2h1c0.9,0,1.3-0.3,1.3-1.1c0-0.8-0.5-1-1.3-1
		L9.1,47.8z M5,57.8h4.4c1.7,0,4.6,0.8,4.6,5.5c0,3.8-2.7,5.2-4.7,5.2H8.9H5V57.8z M17.1,57.8h2.6l3.7,10.7h-2.7L20,66v0h0l-1.4-4.5
		L18.5,61l-0.1,0.5l-1.5,4.6h2.6v2.3h-6.1L17.1,57.8z M23.7,57.8h2.6v10.7h-2.6V57.8z M7.5,60v6.1h1.7c0.9,0,2.3-0.3,2.3-3
		c0-2.2-1.1-3.1-3.1-3.1H7.5z"/>
</g>
</svg>
