<?xml version="1.0" encoding="utf-8"?>
<!-- Generator: Adobe Illustrator 21.0.0, SVG Export Plug-In . SVG Version: 6.00 Build 0)  -->
<svg version="1.1" id="Layer_2" xmlns="http://www.w3.org/2000/svg" xmlns:xlink="http://www.w3.org/1999/xlink" x="0px" y="0px"
	 viewBox="0 0 573.4 382.3" style="enable-background:new 0 0 573.4 382.3;" xml:space="preserve">
<style type="text/css">
	.st0{opacity:0.8;}
	.st1{fill:#FFFFFF;}
</style>
<g class="st0">
	
		<image style="overflow:visible;" width="625" height="421" xlink:href="2C27B4E4.png"  transform="matrix(1 0 0 1 -31.6667 -29.5867)">
	</image>
</g>
<g>
	<g>
		<path class="st1" d="M109.1,232.4c1.5,0,3.2,0.2,5,0.6l3.2,2.8c0.6,1.4,1.1,3.1,1.6,4.9l3.1,20.8c0.6-0.3,1.2-0.6,1.8-1.1l0.9,0.4
			c0.3-1,0.4-2.1,0.3-3.3l-0.9-5.9c0-1.5,0.2-3,0.7-4.7c0.6-1.2,1.6-2.4,2.8-3.4c1.3-0.7,2.9-1.3,4.7-1.8l15-2.2l2.2,0.2
			c1.2,0.3,2.5,0.8,4.1,1.6c1,1.2,1.7,2.6,2.3,4.3l6.4,40.7l0.7,2.9l1.2-1.3l1-0.4l0.4,2.9l-1.3,0.2l-0.2,0.3
			c-0.5,1.3-0.6,2.8-0.4,4.4l1.1,11.3c-0.5,1.2-1.3,2.4-2.5,3.6c-1.1,0.8-2.6,1.5-4.3,2l-9.6,1.4c0.1,0.5,0,1-0.3,1.7
			c-1.4-0.1-2.9-0.4-4.5-1l-3.8,0.3l0.3,1.9l-1.8,0.8l-0.2-3.2c-1.2-0.7-2.6-1.3-4.1-1.8c-0.6,1-1.2,2-1.7,3.2l-3.3,1.8l-1,0.7
			l-0.6-0.2l0.8-1.8l1.3-0.2l2-3.3c0.7-0.8,1.1-1.8,1.2-2.9l-2.2,0c-0.5,0.4-0.9,1-1.4,1.8c-0.5,1.2-1.2,2.4-2.2,3.6
			c-1.1,0.9-2.4,1.6-4,2.2l-17.7,2.6c-1.5-0.1-3-0.6-4.6-1.2c-1-0.9-1.9-2-2.7-3.4c-0.7-0.4-1.4-1.1-1.9-1.9l1.3-0.7l-0.6-4.3
			c-0.1-0.3-0.4-0.5-0.7-0.7l-4.4-0.2l-4.1,1.7l-3.3-1.7l-3.4-0.6c-1.1,0.1-2.2-0.1-3.4-0.6c-1.2-0.7-2.5-1-4-1
			c-1.1-0.3-2.1-1.1-2.8-2.3l2.6-2.8l1.5-0.8l2,2.2l3.5-0.2l0.4,0.8l1.4,0.1l1-0.7l1,1.5c0.7-0.3,1.3-0.8,2-1.4l0.5,1.3
			c0.5-0.4,0.9-0.9,1.1-1.5l2.5,0.2l0-1.6l-0.4-1l-1.5-0.9l-2.1-3l0.1-2.7l-1.5-1.1c-1.1-0.2-2.2-0.6-3.5-1.4
			c-0.9-0.9-2.1-1.6-3.6-2.2c-0.3-1.5-0.8-3.2-1.6-4.9c0.1-0.8,0.4-1.7,0.7-2.6c-0.4-0.2-0.9-0.6-1.3-1.2c-0.6-1.2-1.5-2.4-2.7-3.4
			c-1-0.8-2.3-1.1-3.7-1.1c-0.5,1.3-1.1,2.5-1.9,3.8c-0.3,1.4-1.2,2.6-2.5,3.6l-3.4,2.7l-2.3,0.9l-2.5-0.2c0.8-1.1,2.1-1.8,3.8-2.2
			c1.4-0.6,2.7-1.3,4-2.2c0.7-1.2,1.4-2.4,1.9-3.8l1.5-2.7l-1.3,0.2c-1.3-0.2-2.9-0.6-4.6-1.2c-1.2-0.4-2.3-1-3.5-1.7
			c0.4-0.5,0.9-0.8,1.5-1c0.6,0.5,1.3,0.9,2.1,1.3c1.4,0.3,3,0.6,4.7,0.7c1.4-0.3,2.5-1.1,3.5-2.4l-0.1-2.7l3.9-1.1
			c-0.5-0.9-1.5-1.6-2.8-2c-1.2-0.6-2.5-1.1-4.1-1.6l-3.2-2.8c-0.6-0.9-1.1-1.9-1.5-3c0.2-1.2,0.2-2.5,0-3.8
			c-0.2-0.8-0.6-1.7-1.2-2.5l1.3-2.4l-1.6-3.3c-0.1-1.5,0.1-3.2,0.6-5l1.4,0.3c0,1-0.2,2.1-0.6,3.1l1.9,3.8c1,0.7,1.7,1.7,2.1,3
			l1,2.8l-0.4,0.9l1.3,3.3c1.2,0.6,2.5,1.2,4.1,1.6l1.8,1.1l2-1.1l2.9-0.4l-1.5-1.1c-1-1-2.3-1.7-3.8-1.9l-2.7-3.7l-1.8-4.6
			c1.3,0.4,2.3,1.2,3.1,2.5c0.6,1.1,1.3,2.3,2.2,3.5c1.2,0.4,2.4,1,3.6,1.9c1.1,0.7,2.2,1.6,3.4,2.8c1,0.7,2.2,1.4,3.6,2.2l3.4,2.5
			c-0.2-1.2-0.9-2.4-1.9-3.5c-0.8-1.2-1.7-2.3-2.7-3.4l-2.5-3.7l-0.4-0.8l0.2-0.3c0.9,0.4,1.8,1,2.7,1.8l2.5,3.7
			c0.8,1.1,1.8,2.1,2.9,3.1l-0.4-2.7l0.1-2.7c0.5-1.3,1.1-2.6,1.9-3.8l14.7-15.2L109.1,232.4z M58.9,237.1l1.6-0.2l-0.4,1.1
			L58.9,237.1z M74.8,268.2c-0.8,1.1-2,1.9-3.5,2.4l-0.5,2l2.6,0.7c1.2-0.2,1.8-1,1.8-2.4l1-2.6L74.8,268.2z M75.5,285.6
			c0.6,0.1,1,0.5,1.3,1.2C76.2,286.5,75.8,286.1,75.5,285.6z M76.9,260.6c1.3,0.1,2.5,0.5,3.5,1.4l3.7,0.8c-0.7-0.9-1.7-1.3-3-1.5
			C79.9,260.9,78.5,260.6,76.9,260.6z M87.9,269.8c0.2,0.3,0.5,0.6,0.9,0.7l0.4-0.9L87.9,269.8z M89.1,263.4
			c0.1,0.2,0.3,0.4,0.6,0.5C89.6,263.6,89.4,263.5,89.1,263.4z M110.5,240.1L97,254.3c-0.5,1.3-0.6,2.8-0.4,4.4l2.4,16l-2.3,0.9
			L94,276l1.8,13.9l5.1-0.8l0.5,1.8l3.2,21.3l2.4-0.1l13.6-2c0.3-1.3,0.4-2.8,0.2-4.4l-2.8-18.9l1.8-0.5l16.3-2.4l1.1,3.9l2.9,19.4
			l16.9-2.5l-8.6-57.5l-16.9,2.5l2.8,18.6l0,1.6l-18.2,2.7l-0.5-1.3l-4.6-30.6C111.1,240.5,110.8,240.2,110.5,240.1z M127.2,293.1
			c-0.1,1.8,0,3.7,0.3,5.7l2.3,1l-0.6-2.1c0.8-0.7,1.2-1.4,1.3-2.1l-0.4-2.9L127.2,293.1z M128,302c0.3,1.4,0.7,2.8,1.4,4.1
			c0.9,0.5,2,0.8,3.1,0.9l-0.8-3.7l0.1-0.8C130.7,302.1,129.4,301.9,128,302z M140.7,315.6c0.7,0.1,1.2,0.5,1.5,1.1
			C141.5,316.6,141,316.3,140.7,315.6z"/>
		<path class="st1" d="M129.1,235c1.1,0.1,1.7,0.7,1.9,1.9C130,236.8,129.4,236.1,129.1,235z M161.7,226.1l18.2-2.7l0.8,0.1
			c1.2,0.2,2.4,0.6,3.7,1.1c0.9,0.6,1.7,1.4,2.5,2.3l1.4,3.9l2.8,18.9l0.5,1.8l2.1-0.9l1.3-0.2l-1.2-8l-0.1-4.3
			c0.2-1.1,0.6-2.3,1.1-3.4l2.7-2.3l4.2-1.2l14.4-2.1l4.1,0.2l3,2l1.8,3l1.9,11.1l2.3-0.9c1,0.4,2,1,3,1.7c0.2,1.2,0.6,2.5,1.1,3.6
			c0,1.2,0.1,2.6,0.3,4l1.6,3.3l0.7,1l-0.7,6.6l0,1.9c0.4-0.2,0.8-0.6,1.2-1c1.3-0.1,2.7,0,4.1,0.2c0.6,0.9,1.3,2.1,1.9,3.5
			c-0.2,1.2-0.9,1.9-2.1,2.2l-4,0.9c-0.9-0.4-2-0.7-3.1-0.9l-2.4,0.1c0.1,0.4,0.4,0.8,0.7,1.3c0.1,1.2,0,2.4-0.3,3.6
			c0.2,0.9,0.7,1.8,1.5,2.5c0.4,1.1,1.1,2.2,1.9,3.3l-0.8,3.7c0.7,1,1.3,2.2,1.6,3.6l-1.1,1.8l0.8-0.4l0.3,0.5
			c0.9,0.6,1.9,1.2,3,1.7l2.3-1.2l-0.9,1.2l1.5,0.6c0.8,0.3,1.5,0.9,2.2,1.6c-0.4,0.7-1.1,1.4-1.9,1.9l0.1,2.2l0.4,0.8l2.7,3.4
			l0.8,1.8l-0.2,0.6c-0.4-0.1-0.8-0.3-1.2-0.6c-0.8-0.8-1.6-1.7-2.3-2.7l-1.9-3.3c-0.7-0.6-1.6-1.1-2.7-1.5c-0.7-0.8-1.6-1.4-2.8-2
			l-2.7-1.8c-0.9-0.2-1.8-0.6-2.6-1.2l-3,0.2c-0.3,0.1-0.5,0.4-0.7,0.7l-2.4,2.5c-0.6,0.8-1.3,1.5-2.1,2.2l-2.7,2.3l-7.2,3.2
			l-12.7,2.7l-0.6-0.2l-4.6,0.4l-7.8-0.8c-1.1-0.2-2.4-0.6-3.7-1.1L176,302c-1-0.6-1.9-1.4-2.8-2.3l-2.5-2.3l-2-2.7l-3.5-6.8
			c-1-0.4-2-1-3-1.7l-0.1-2.2l-0.4-0.8c-0.1-0.3-0.3-0.6-0.7-0.7l0-3.8l-1.2-0.6l-0.5-5.4l-1.3,0.7l-2,3c-1,0.7-2.2,1.2-3.6,1.6
			c-0.9,0.5-1.8,1.2-2.7,2c-1,0.6-2.2,1.1-3.6,1.6c-1,0.6-2.3,1.1-3.6,1.4c0.3-0.9,0.8-1.8,1.5-2.7c1.1-0.5,2.1-1.1,3-1.8l-0.7-2.9
			l1.4-3.2c0.2-1.1,0.8-1.8,1.9-2.2l2.8-1.5c1.1-0.3,2.2-0.7,3.4-1.3l2.1-0.6l-0.8-1.8l-2.8-2l-2.1-3l-1.6-3.6l1.7-3l-3.1,1.3
			l-6.4-0.7l-0.9,1c-1.1,0-1.7-0.6-1.9-1.6c1-0.6,2.1-1.2,3.3-1.6l-1-1.2c0.4-0.3,0.9-0.6,1.5-0.8c0.4,0.8,1.2,1.4,2.2,1.6
			c1.1-0.2,1.9-0.9,2.4-2c0.4-0.4,0.6-0.9,0.6-1.4l-1.6,0.5l-4,0.9c-1.2,0.4-2.4,0.9-3.6,1.6c-0.3-0.7-0.7-1.1-1.3-1.2l-1.3,0.7
			l-0.5-1.8l0.2-0.6c0.8-0.3,1.3-0.8,1.4-1.6c-0.6-0.5-1-1.2-1.4-2l1-0.4l0.3,0.2c0.9,0.5,1.8,1.3,2.5,2.3c1.4,0.2,2.7,0.3,4.1,0.2
			l3.6-1.4c0.9-0.8,1.9-1.5,3-2.1c1.1,0.3,2.1,0.9,3.3,1.7l1-2.3c0.7-0.9,1-2,0.9-3.4l-0.7-4.8l0.5-3.9l2-3L161.7,226.1z
			 M151.6,274.4l-0.3,1.7l1.3-0.2c0.7-0.2,1.4-0.6,2-1.1c-0.3-0.2-0.7-0.3-1.1-0.4L151.6,274.4z M151,246.4l2.2,1.6
			C152.9,247.1,152.1,246.5,151,246.4z M156.8,272.2l0.5-0.1l-0.1-0.5l-0.3,0L156.8,272.2z M163.8,233.4l7.1,47.4
			c0.2,1.4,0.7,2.7,1.4,4.1c0.3,1.3,0.9,2.7,1.7,4.1l2.2,3.5l2.6,2.6l6.8,3.6l13.5,0.5l9.8-2l4.1-2l3.2-2.1l2.6-2.8l2-3l2.4-7.4
			l0-7.1l-2.2-12.7l-0.1-2.4l-1.1-5.3l0.1-0.8l-2.2-14.9l-16.6,2.5l-0.1,0.8l5.5,36.7l-0.8,3.9l-2.3,3.1l-3.8,1.9l-4.1,0.3l-0.8-0.1
			l-3.5-1.4l-2.7-3.1l-8-50.2L163.8,233.4z M196.8,267.4l0.7,2.9l-0.5,2c0,0.5-0.1,1.1-0.3,1.7l1.7,2.2l-0.1-4.1l-0.7-4.5
			L196.8,267.4z M223.3,303.5c0.7,0.1,1.2,0.5,1.5,1.1C224.1,304.5,223.6,304.1,223.3,303.5z M224.1,297.9l1.3-0.2l-0.9,3.4l-1,0.4
			l-0.3-0.2C223.4,300.2,223.7,299.1,224.1,297.9z M226.9,300.5l1.1,0.4l-0.4,1.1l-1.1-0.4L226.9,300.5z M239.5,306.2
			c0.4,0.4,0.8,1,1.1,1.7l-1.3,0.2c-0.5-0.3-0.8-0.7-1-1.2C238.8,306.9,239.2,306.6,239.5,306.2z M237.4,290l1.3,1.2l-1.8,0.5
			C236.9,291.1,237.1,290.6,237.4,290z M237.8,288.8c0.5,0,1,0.2,1.5,0.6C238.6,289.5,238.1,289.3,237.8,288.8z M235.1,267.5
			l0.6,0.2l-0.4-0.8L235.1,267.5z M238.6,287.1l1.9-0.3l0,1.6C239.6,288.5,239,288.1,238.6,287.1z M242.9,297.6l1.4,0.1
			c-0.3,0.5-0.8,1-1.4,1.3L242.9,297.6z M241.4,286.1l1.4,0.1c-0.2,0.6-0.6,1.1-1.1,1.5L241.4,286.1z"/>
		<path class="st1" d="M267.2,211.3l3.8,0c0.8,0.5,1.7,0.9,2.6,1.2l14.3,9.9l2.7,1.5l2.2,1.9l1.3,3.3l4.4,27.9
			c0.8,0.5,1.6,0.9,2.6,1.2c0.9,0.6,1.6,1.3,2.2,2.1c-0.2,1-0.3,2.1-0.3,3.3c-0.1,1.1-0.4,2.1-0.9,3.1l-1.9,2.2l1.8,12
			c0.1,0.9,0.5,1.9,1,2.8l3.7-0.8l2.1-2.2c0.9-0.5,1.9-0.9,3.1-1.3c0.8-0.3,1.7-0.7,2.6-1.2l3.7-0.8l2.8-5c-0.3-0.9-0.8-1.9-1.5-2.8
			l0-2.2l1-0.4l0.3,0.2c0.2,0.8,0.5,1.7,0.9,2.6l1.2,2.5l-2.8,5l3.4,0.6l1.9,0l0.5-0.6l3.6,0.3l5.8,2.1c0.8-0.2,1.6-0.6,2.3-1.2
			c0.6-0.7,1.2-1.5,1.8-2.4c0.2-0.8,0.5-1.6,1-2.3c0.1-1,0.4-2,0.9-2.9c0.2,0,0.4,0.2,0.6,0.5l0,1.6l-0.7,0.7
			c-0.2,0.9-0.5,1.8-0.9,2.9l-1.2,2.9l-1.4,1.3l0.9,0.4l0.7,1l-0.2,0.6l-1.2-0.4l-0.8,2.3l-4.2-4l-2.6-1.2c-1.1-0.2-2.3-0.3-3.6-0.3
			l-3.2,0.2c-0.9,0.4-1.9,0.9-3.1,1.3l-3.3-0.3l-3.2,0.7l-2.3,0.9l1.4,0.1c0.1,0.5,0,1-0.3,1.7l-4.7,1.5c0.2,0.3,0.5,0.5,0.9,0.7
			c1.1,0,1.9,0.6,2.5,1.8c0.4,0.7,0.9,1.4,1.7,1.9c0,0.3-0.2,0.6-0.4,0.9L311,290l-1.5-2.8c-1-0.3-1.8-0.7-2.6-1.2l-3.3-0.1
			l-2.6,4.7l-2.5,1.7l-3.7,1.1l-2.1,0.3l0.7,1l-0.9,3.1c-0.1,0.9-0.4,1.9-0.9,2.9l-0.7,2.8c-0.5,0.4-1,1.1-1.4,1.8l2.4,1.5l1.3,1.7
			c0,0.3-0.2,0.6-0.4,0.9c-0.2,0.7-0.2,1.5-0.2,2.5l0.2,3l-0.8,0.1l2.2,1.9c0.6,0.8,1.1,1.8,1.5,3l-0.7,0.9l-1.8-0.8
			c-0.4-0.9-0.9-1.8-1.7-2.5c-0.7-0.7-1.3-1.6-1.8-2.7c0.2-0.8,0.4-1.7,0.4-2.8l-0.5-1.6l0.6,0.2l-0.4-1c-0.2-0.6-0.7-1.2-1.3-1.7
			c-0.9-0.3-1.7-0.8-2.4-1.5c0.3-0.9,0.7-1.9,1.2-2.9c0.5-0.8,0.9-1.6,1.2-2.6l1.2-1.3l-1.3,0.2c-0.2-1-0.6-2-1-3.1l-0.9-0.4
			c-0.6,0.3-1.3,0.6-2.1,0.9c0,1-0.1,2.1-0.3,3.3l0.3,3.8c0,1.1-0.1,2.2-0.3,3.3l0.7,3.2l0.2,3.5l0.7,2.6l-0.1,0.8
			c0.3,0.7,0.8,1.5,1.4,2.2l1.1,3.4l0.6,4.3l-0.3,3.3c-0.6,0.7-1.3,1.3-2.2,2l-0.6,3.1l-0.1,1.1l0.7,2.6l0.2,1.1
			c-0.9,0.1-1.7-0.1-2.5-0.4l-0.3-3.8l-0.4-2.9l1-0.4c0.3-0.7,0.7-1.4,1.3-2.1l0.6-3.1l-0.2-3.2l-1.3-3.1c-0.4-0.9-0.8-2-1-3.1
			l-1.8-6.8l-0.9,2.9c0,1.1-0.1,2.3-0.3,3.6l0.3,1.9c-0.6,0-1.2-0.2-1.7-0.6l-1.3-4.7l0.1-0.8l2.4-7.4l-0.7-0.7l-0.6-4l-1.5-2.8
			l-2.4-1.5l-0.2-1.3c-0.4,0.4-1,0.7-1.8,1.1l-2.2,2c-1,0.5-2.1,0.9-3.4,1.3c-0.9,0.1-1.9,0.1-3-0.1c1-0.6,2.1-1,3.4-1.3l5.5-3.3
			c-0.2-0.6-0.5-1.2-1.1-1.7c-0.4-0.8-1-1.6-1.7-2.5l-3.3-5.5l-2-2.2l0.6,7.5c-0.2,1-0.5,2.1-0.9,3.1l-0.7,2.8
			c-0.4,0.8-0.9,1.7-1.5,2.7c-0.2,1-0.3,2.1-0.3,3.3l-2.1,2.2l-0.7,2.8l1.1,3.6l-0.6,3.1l-0.9,1.5l1.4,0.1l0.8,3.7
			c-0.4,0.8-1,1.5-1.9,2.2l-2.2,1.7c-0.7,0.6-1.5,1.2-2.5,1.7l-1.6,0.5l0.5,1.8l0.4,6.5l0.4,0.8c-0.6,0.8-1.4,1.4-2.4,2l-2,1.1
			l-0.9-0.4l-0.5-1.8l1.8-0.5c0.5-0.5,1-1.1,1.4-1.8c-0.1-0.6,0-1.3,0.3-1.9l-0.6-0.5l-0.4-0.8l-0.1-6l3.1-1.5
			c0.8-0.4,1.5-0.9,2.2-1.4l2.2-1.7l-1.3-1.4c-0.3-0.6-0.6-1.3-0.9-2l0.4-0.9c0.4-1,0.5-2.1,0.6-3.4l-1.5-2.8
			c-0.3-1.1-0.7-2.1-1.3-3.1c-0.8-0.5-1.5-1.1-2.2-1.9L251,304l-0.7,0.7l-5.7,2.2l-0.8-0.1c-1-0.1-2-0.3-3.1-0.6
			c-0.8-0.5-1.6-1.1-2.5-1.8c-0.6-0.8-1.1-1.7-1.5-2.8c-0.4-1-0.7-2.2-1.1-3.4c-0.5-0.9-1.2-1.6-2-2.2c-0.6-0.8-1-1.8-1.2-2.8
			l-1.3-3.1l0.9-2.9c-0.3-0.9-0.8-1.7-1.5-2.5l-1.4-2l0.4-0.9l-0.1-2.4l-0.4-0.8c-0.5-0.9-0.8-1.9-1-3.1l0-3.5l-1.3-3.1
			c-1-0.2-2-0.2-3-0.1l-2.3-1l-2.8-0.4c-1-0.3-2.1-0.5-3.4-0.6l-2.6-1.2c-0.5-0.8-1.1-1.5-2-2.2c-0.4-0.9-0.8-1.9-1-3.1
			c0.4-0.4,0.9-0.8,1.5-1l0.7,1.3c0.4,0.8,1,1.7,1.7,2.5l2.4,1.5l2.5,0.2c0.8,0.4,1.6,0.6,2.6,0.7c-0.7-0.5-1.6-0.9-2.6-1.2
			c-0.6-0.7-1-1.7-1.2-2.8l3.1-1.3l2.9-0.7l0.8,1.5l-1.3,0.5l-2.3,1.2c1,0,2,0.2,3.1,0.6c0.9,0.1,1.8,0.3,2.8,0.7
			c0.4,0.5,1,0.9,1.5,1.1l-1.2-2.8l-1.7-2.5l-1-2.8l-0.7-0.7l-0.1-2.4c0.5-0.8,1.1-1.5,1.9-2.2c-0.5-0.8-1.2-1.5-2-2.2l-0.5-1.6
			c-0.5,0.1-0.9,0.4-1.2,1l-1.7,1.3l-0.9-0.4c0.2-1,0.5-2,0.9-2.9c0.4-0.5,0.6-1,0.6-1.7c-0.4-0.5-0.8-1.2-1.1-2l0.4-0.9l1.6-0.5
			l0.5,1.3l1.3-0.5l1.2,0.4l-0.3-0.5l-0.4-2.7l1.6-0.2c0.6,0,1.3,0.2,2,0.5l0.1-0.8c-0.2-0.6-0.4-1.3-0.6-2.1l0.2-0.6l0.1-0.8
			c0.1-1,0.3-2,0.6-3.1c0.5-0.8,1.1-1.6,1.8-2.4l2.8-1.5l16-2.6l3.3,0.3l3.1,0.9l7.9,8.9c0.4,0.6,0.9,1.1,1.6,1.7l-2.4-16.2l0-3.8
			l0.9-2.9l1.9-2.2L267.2,211.3z M216.2,272.2c0.7,0.1,1.3,0.6,1.8,1.4l-1.6,0.5L216.2,272.2z M222.4,266.3l-0.1-0.5l-0.3,0
			L222.4,266.3z M269.2,218.9l6,40.5l0.1,2.7l-1.3-1.2l-24.3-27.4l-15.2,2.3l1.9,14.7c0.4,1.3,1,2.6,1.7,3.8l-0.4,2.5l1.2,0.6
			c1,0.5,2,0.8,3.1,0.9c1,0.2,2,0.2,3,0.1l1.8-0.5l0.8,0.1l0.8-0.1l0.6,0.5c1-0.2,1.9-0.6,2.9-1l3.9-1.7l3.7,1.1
			c1.1,0.7,1.8,1.6,2.1,3l-0.1,0.8l2.1,4.6l-0.4,1.1c-0.3,0.6-0.8,1.1-1.4,1.6l0.8,1.5l14.8,16.6c0.8,0.8,1.7,1.5,2.8,2l15.2-2.3
			l-8.2-55.1L269.2,218.9z M238.4,263.4l5.4,35.9l1-0.4l2-1.4l9.6-5l2.2-1.4l-3.5-23.2l-2.1,0.6l-0.9-0.4c-0.6-0.5-1.2-1-1.6-1.7
			l-2.3-0.7l-0.6-2.1l0.1-0.8l-1.8,0.5l-0.9-0.4l-2.1,0.8C241.7,263.9,240.1,263.8,238.4,263.4z M305.1,294.6l1.3-0.2
			c0,0.5-0.1,1-0.3,1.4l-0.8,0.4l-0.6-0.2L305.1,294.6z M308.4,294.7l1.9-0.3c-0.4,0.7-1.1,1.2-1.9,1.6L308.4,294.7z M319,285.2
			c0.8,0.2,1.7,0.5,2.6,1c0.1,0.8,0,1.6-0.2,2.5c-0.8-0.5-1.2-1.2-1.4-2.2l-1.4,1.3c-0.5,1.1-1.2,2.2-2,3.3l-2.5,3.6
			c-1,0.6-2.1,1.1-3.3,1.6c0-0.5,0.1-1.1,0.3-1.7c1.1-0.5,2.2-1.2,3.2-2.1c0.4-1.2,1.1-2.4,1.9-3.5
			C316.9,287.7,317.8,286.5,319,285.2z M315.2,267l3.2-0.5l0.8,1.8C317.9,268.4,316.5,267.9,315.2,267z M322.1,289.4
			c0.9,0,1.9,0.2,2.8,0.7l-2.2,1.7l-2.2,0.1l0.1-1.1C321.3,290.4,321.7,290,322.1,289.4z"/>
		<path class="st1" d="M256.1,217.2l2.7-0.4c0.2,0.4,0.4,0.8,0.7,1.3l4.9,3.6c0.6,0,1.4,0,2.2-0.1l0.7-0.7l2.6-0.7l-0.2-1.3
			c1-0.5,1.9-1.2,2.7-2l2.3-1.2l3.5,1.7l3.1,0.6l2.5,1.8c0.5,1,1.2,1.6,2.2,1.9l3.1,0.6c0.9-0.1,1.7-0.5,2.6-1.2
			c1.1-0.3,2.1-0.7,3.1-1.3l3.3-1.6c1.1-0.4,2.3-0.8,3.7-1.1l43.3-6.4c0.8-0.8,1.8-1.4,3-1.8l3.8,0l2.9-1c0.8-0.6,1.6-1.1,2.5-1.5
			l2.4,1.5l4.7,3.9l1.3,3.3l2.7,1.8l1.5,3l0,3.8c-1,0.4-1.9,1-2.7,1.8l0.5,3.5l-0.1,0.8c-0.1,1.1-0.3,2.2-0.6,3.4
			c-0.5,0.9-1.1,1.8-1.8,2.7c-0.8,0.5-1.8,1-3.1,1.5l-12.2,2.4l-1.8,2.7l0,5.7c0.1,0.8,0,1.8-0.1,2.7l-0.3,1.4l1.7,0.6l3.1,0.6
			c1,0.3,2,0.5,3.1,0.6c0.9,0.5,1.6,1.3,2.3,2.4l0.3,4l3.1-1l3.1,0.4l2.7,1.8c-0.5,0.9-1.2,1.6-2.1,2.2c-0.8,0.5-1.6,0.9-2.6,1.2
			l-3,0.2l-2.1,0.8l-1-0.9c-0.8-0.6-1.6-1.3-2.2-2.1l-1.8-2.7l0.6-1.7l-1.2-0.6l-2.3,1.2l0.6,2.4l-0.1,0.8l0.7,0.7
			c-0.2,0.6-0.3,1.2-0.3,1.9c-0.2,1.1-0.3,2.3-0.3,3.6l0.9,8l-1.2,2.9c-0.2,1-0.2,2.1-0.1,3.3c0.1,0.8,0,1.7-0.1,2.7l0.7,0.7
			l2.9,0.9c1,0.4,1.9,0.8,3,1.5l0.9,0.7l-0.5,2.2l0.8,3.4l-1.1,1.8l0.8-0.4l2.8,0.1l1.8-0.8l-1.1-2c0-1.2,0.5-2.2,1.5-2.9l7.5-0.8
			c0.8,0.3,1.5,0.9,2.2,1.6c-0.6,0.3-1.3,0.6-2.1,0.8c-0.2-0.3-0.5-0.4-0.9-0.4l-2.9,0.7l-1.9,0l-0.8,0.1l0.3,0.5l0.3,4
			c-1.1,0.4-2.2,0.8-3.4,1l-2.9,0.7l-0.8-0.1c-1.2-0.1-2.2-0.5-3.2-1.2c0.3-0.9,0.7-1.9,1.2-2.9c0-0.8,0-1.6,0.2-2.5
			c-0.3-0.2-0.5-0.6-0.7-1l0.3-1.4l-1.9,0c-1.1-0.2-2.1-0.6-3-1.5l-1.3,0.5L348,289l0.3-1.7l-0.9-2.3l0.4-0.9
			c-0.4,0.6-0.6,1.4-0.8,2.3l-0.7,2.8c-0.5,0.8-1.2,1.5-2.1,2.2c-0.4,0.4-0.6,0.9-0.9,1.5c0.5,0.1,1,0.3,1.5,0.6l0.2,3l-0.2,2.2
			l0.1,0.8l0.3,0l2,2.4c0.7,0.8,1.3,1.7,1.8,2.7c0.7,0.6,1.5,1.4,2.3,2.4l0.6,2.4l-1,0.7c-0.4,1-0.9,1.9-1.5,2.9l-0.9,2.9l1.8,3
			c0.8,0.6,1.6,1.3,2.2,2.1l2.9,1.2c1.2,0,2.1,0.6,2.7,1.8c0.3,1.1,0.7,2.2,1.3,3.3c0.8,0.5,1.8,0.9,2.9,1.2l0.8,1.8l-1.9,0
			c-1-0.4-1.9-1-2.7-1.8l-1.3,0.7l-1-1.5c-0.3-1.1-0.7-2.3-1.3-3.3l-2.7-1.5c-0.9-0.5-1.8-1-2.7-1.8c-0.7-0.6-1.3-1.4-1.7-2.2
			c-0.6-0.9-1.1-1.9-1.5-3l-0.1-2.4l1.3-0.5c-0.1-0.9,0.2-1.7,1-2.3c0.2-0.9,0.2-1.9,0.1-3l-3.5-4.9c-0.4,0.7-0.6,1.5-0.8,2.3
			l-1.2,3.2l-0.4,3c-0.2,0.9-0.6,1.9-1.2,2.9c0.3,0.7,0.7,1.4,1.1,2l-0.4,0.9l-0.6,8.5l0.9,0.4l0,3.8c-0.2,1.1-0.4,2.2-0.9,3.4
			l-3.3,5.1c0,0.9-0.3,1.9-0.7,2.8c-0.3,0.9-0.8,1.7-1.6,2.4c-0.1,0.9-0.1,2-0.1,3.3l-0.5,0.6l0.3,0.2l0.6,2.4
			c-0.1,1-0.4,2.1-0.9,3.1c-0.7,0.7-1.6,1.4-2.7,2l-1.7-0.3c0-0.6,0.2-1.2,0.6-1.7c0.7-0.6,1.4-1.3,2.1-2.2l0-1.6l-0.3-0.5l-0.6-4
			l0.9-1.2c0.4-0.9,0.9-1.8,1.5-2.7c0.4-0.9,0.8-1.8,1.2-2.9l0.9-3.1l1.8-2.7l0.9-3.1l0.1-0.8l-0.6-2.4c-0.7-0.5-1.4-0.8-2.3-1
			c-0.4,0.7-0.7,1.6-1,2.6c0,1.1-0.1,2.2-0.3,3.3c-0.5,0.6-1.2,1.3-1.9,1.9l-3.3,1.6l-0.9-0.4l-2.3,0.9l-1.2-0.6l-1.5,1
			c-0.8,0.4-1.7,1.1-2.4,2c0.2,1,0.1,2.1-0.1,3.3c0.1,0.3,0.3,0.5,0.7,0.7l-0.5,2.2c-0.7,0.8-1.3,1.7-1.8,2.7
			c-0.9-0.3-1.8-0.8-2.7-1.5c-0.5-0.4-1-1-1.3-1.7l1.3-0.7l1.2-2.6l0.1-1.1l-0.7-2.9c0.6-0.8,1.1-1.7,1.5-2.7l3-1.8l0.9,0.4l2.3-0.9
			c0.8,0.2,1.6,0.2,2.5,0.2c0.9-0.2,1.9-0.6,2.9-1l1.5-2.7l-0.2-3.5c0.7-0.9,1.7-1.5,3-1.8c0.4-0.7,0.5-1.6,0.4-2.5
			c0.5-0.6,0.9-1.3,1.1-2.1l-1.2-2.8c0.3-0.7,0.5-1.6,0.4-2.5c-0.5-0.6-0.9-1.4-1.2-2.3l-1.6-3.3c-0.9-0.1-1.8-0.4-2.8-0.7
			c-0.9-0.4-1.8-0.9-2.7-1.5c-0.8-0.7-1.7-1.2-2.7-1.8c-0.7-0.7-1.5-1.3-2.5-1.8l-2.2-2.1l-0.9-2.3l0.4-0.9c-0.6-0.6-1-1.4-1.2-2.3
			l0-1.6l-0.4-1l0.2-0.6l-0.3-0.2c-0.3-1.1-0.8-2.2-1.3-3.3l-1.9-5.7l0.1-0.8c0-1,0.1-2.1,0.3-3.3l-0.9-2.6l0.1-0.8
			c0.4-1,0.8-1.9,1.5-2.9l-1.1-3.4c0.3-1,0.5-2.3,0.6-3.6l-0.9-5.9c-0.6,0.3-0.9,0.7-1.2,1.3l-1.8,2.4c-0.4,1.1-0.6,2.3-0.6,3.6
			l0.6,4.3c-0.1,1.1-0.7,1.8-1.9,2.2l-1.6,1.9c-0.2,1.1-0.6,2.1-1.2,3.2c-1,0.4-1.4,1.2-1.3,2.4c-0.4,0.7-0.7,1.6-0.7,2.6l-0.7,0.7
			l-2.3-0.5c-0.4-1-0.8-2.2-1.1-3.4l-0.8-1.8l0.4-0.9c0.9-0.5,1.7-1.2,2.4-2c1.1-0.3,1.8-1.1,2.1-2.2c0.2-1.1,0.9-1.9,2.1-2.5
			c0.2-0.8,0.2-1.8,0.1-2.7l-0.3-4c0.4-0.8,1-1.6,1.8-2.4l1.5-2.9l0.9-3.1c0.5-0.6,0.8-1.4,0.8-2.3c-0.2-0.9-0.6-1.9-1.2-2.8
			c-0.5-0.9-1.3-1.6-2.2-2.1l-8.4,0.7l-2.7-1.5c-0.7-0.8-1.3-1.7-2-2.7l-1.1-3.6c-0.2-1.1-0.6-2.2-1.3-3.3l-1.1-0.4l-1.8,1.1
			l-3.2-1.2l0,2.2l-0.8,1.8l-1.4-0.3l-0.7,0.9c-0.6-0.1-1.4-0.2-2.2-0.2c-0.3,0.2-0.5,0.5-0.7,0.9l0.9,2c-0.6,0.7-1.4,1.4-2.4,2
			c-0.4-0.1-0.7-0.3-0.9-0.7l0.7-4.2l-1.4-0.3c-0.6-0.9-1-1.9-1.3-3.1l1.4-1.3l1.1,0.4c0.7-0.6,1.6-1.2,2.5-1.7
			c0.4-0.9,0.9-1.7,1.6-2.4l-2.9-1.2c-0.8-0.3-1.7-0.8-2.7-1.5l-3-0.1l-1.2-2.8l-2-2.7l0.1-1.1l-0.3-0.2l-0.9,1.2
			c-1,0.4-2.1,0.8-3.4,1l-3.4,1.3l-2.7-1.5c-0.5-0.7-1.2-1.3-1.9-1.9c-0.8-0.4-1.7-1-2.5-1.8l-1.7-0.3L256.1,217.2z M267.9,208.7
			c0.2,0,0.4,0.2,0.6,0.5C268.4,209.1,268.2,209,267.9,208.7z M269.1,200.1l1.1-0.2l-1.2,1.3L269.1,200.1z M276.7,219.4l0.7,2.6
			c0.9,0.5,1.8,1,2.7,1.8l3,1.5c1,0.3,2,0.5,3.1,0.6l-0.5-1.3c0.2-0.1,0.3-0.3,0.5-0.6l-1.6,0.5l-2.2-2.1c-0.6-0.9-1.5-1.5-2.7-1.8
			L276.7,219.4z M285.9,229.7c0.1,0.2,0.3,0.4,0.6,0.5C286.4,230,286.2,229.8,285.9,229.7z M301,225l1.8,12l0.6,2.1l13.6-2
			c1.1-0.2,2.3-0.2,3.6,0l8.1,54l1-0.7l13.3-15l0-3.5l-5.4-35.9c-0.1-1.2,0.4-1.9,1.6-2.1l11.7-2c0.8-0.2,1.7-0.6,2.6-1.2l3.1,0.6
			l3.7-0.8l-2-11.4l-0.1-2.4L301,225z"/>
		<path class="st1" d="M344.5,236.2l1.9-0.3l0.3,2.1l-1.9,0.3L344.5,236.2z M370.6,207.6l49.5-7.3l3.5-0.2l3.1,0.4
			c0.7,0.4,1.4,0.9,2.2,1.6c0.6,0.7,1.2,1.5,1.7,2.5l0.9,2l-0.1,0.8l0.3,5.4c0.9,0.3,1.7,0.7,2.4,1.3l1,1.5l-0.5,0.6
			c-0.6,0.7-1.4,1.2-2.2,1.7c-0.5,0.6-0.9,1.3-1.3,2.1c0.5,0.5,1.1,0.8,1.8,1.1l3.1,0.4c0.8,0.2,1.7,0.5,2.6,1
			c0.4,0.6,0.7,1.3,0.9,2.1l1.9,1.9l0.9,2.1l-0.4,0.9c-0.3,0.7-0.4,1.6-0.4,2.5l-0.4,2.5c-0.6,0.3-1.3,0.8-2,1.4
			c-0.1,0.9-0.3,1.7-0.7,2.6l-1.6,2.1c-0.4,0.7-0.5,1.6-0.4,2.5l-1.2,2.6l-1.9,1.9c-0.6,0.6-1.4,1.2-2.2,1.7l1,1.5l0.7,2.6l0.8,1.5
			l-0.5,0.6c-0.4,0.7-1.1,1.4-1.9,1.9l-1.6,0l-0.5,0.3l0.4,0.8l1.7,2.2l1.2,2.8l0.6,2.1l-0.1,0.8c-0.1,0.8-0.2,1.8-0.4,2.8l-0.7,2.6
			l-2.6,0.9l3.6,4.1l1.7,2.5c-0.2,0.8-0.5,1.7-1,2.6c-1-0.4-1.6-1.3-1.7-2.5l-1.9-1.9c-0.4-0.6-0.9-1.1-1.6-1.7l-1.9-1.9l-18.5,2.5
			c-0.8,0.4-1.5,1-2.2,1.7c-0.5,0.3-1.1,0.7-1.8,1.1l-0.7-0.7l-1.2-0.6c-0.1,0.3-0.3,0.6-0.7,0.9l-0.5,0.6l-2-0.5l0,0.3
			c-0.5,0.3-1.2,0.6-2.1,0.9c-0.7,0.1-1.4,0.4-2.1,0.8l-2.1,0.8l-0.7,0.7c-0.4-0.3-1-0.3-1.7-0.3c-0.8,0.4-1.7,0.7-2.6,0.9
			c-0.8-0.1-1.6-0.2-2.5-0.4l-3.3-0.3c-0.6-0.6-1.1-1.4-1.7-2.2l-2.5-0.2c-0.9-0.2-1.8-0.4-2.8-0.4l-0.9-0.4l-1.5,0.8l-2.8-0.4
			c-1,0.3-1.9,0.7-2.8,1.2l-1.9,1.9l-3.4,0.8c-0.7,0.6-1.7,1.1-2.8,1.5c0.1-0.9,0.3-1.8,0.7-2.6l2.8-1.2c0.9-0.3,1.8-0.7,2.8-1.2
			l1.9-1.9l2.3-1.2l1.2-2.6l1.6-2.1L371,269c-0.1-0.7-0.5-1.2-1.1-1.7c-0.4-0.8-0.7-1.8-1-2.8c-0.1-0.6-0.4-1.2-0.8-1.8
			c-0.5-0.6-1-1.4-1.4-2.2c-0.3-0.8-0.7-1.5-1.2-2.3l-1.9-1.9l-2.6-1l-2.2,0l-0.4,0.9c-0.8,0.1-1.6-0.1-2.5-0.4
			c0.1-0.7,0.3-1.4,0.8-2c0.7-0.2,1.3-0.6,1.8-1.1c0.2-0.7,0.6-1.4,1.1-2.1c-0.9,0.2-1.8,0.5-2.9,1l-1.8,0.5l0.6-1.4l-2.3,0.9
			l-0.8-1.8l1.3-0.5c0.5-0.4,0.8-0.9,0.9-1.5c-0.7-0.4-1.2-1-1.7-1.9c0.9,0,1.8,0.1,2.8,0.4c0.4,0.8,0.9,1.6,1.5,2.5
			c0.9-0.1,1.8-0.5,2.6-1.2l-0.2-3.2c0.5-0.4,1-1,1.4-1.8c0.2-0.9,0.6-1.8,1.2-2.6c-0.2-0.7-0.5-1.4-1.1-2c-0.4-0.9-0.8-1.8-1-2.8
			l-0.2-3c0.4-0.7,1-1.4,1.9-1.9l-0.1-2.4c0.5-0.8,1.1-1.5,1.9-2.2l1.3-2.4c0.5-0.6,0.9-1.4,1-2.3l-0.6-3.7l0-3.5l1-2.6l1.9-1.9
			L370.6,207.6z M360.2,251.8c0.1,0.5,0.4,0.8,1,0.9L360.2,251.8z M372.5,214.9l1.4,9l0.4,0.8L374,225l1.6,10.4l-3.3,1.6l1.6,10.4
			l3.8,1.4l2.1,14.1l0.3,0.5l1.1,9.1l43.1-6.4c-0.2-1-0.5-1.9-1-2.8l-4.2-6.4c-0.7-0.9-1.6-1.9-2.6-2.9l-20.1,3l-1.7-11.4l26.2-3.9
			l-0.3-4l-0.9-6.1l-0.5-1.6l-26.2,3.9l-1.3-8.5l3.9-1.1l8.9-1l0.8-0.4l11.5-1.7c1.1-0.5,1.9-1.3,2.6-2.6l4.4-10.7L372.5,214.9z"/>
		<path class="st1" d="M431.6,174.3l2.3,0.5l0.9,2l-0.4,0.9c-0.5,1.3-0.8,2.7-1,4.2l-2.4,4.2c-0.9,0.9-1.3,1.9-1.2,2.9l0.7,2.9
			L430,193l0.9,0.4l5.5,0.3l0.7-0.7c0.5,0.5,0.9,1,1.3,1.7l-0.2,0.6l0.5,1.3l29.4-4.4l0.8,0.1l5.8,0.2c1.5,0.2,3.2,0.6,5.1,1.2
			c1.3,0.5,2.6,1.2,4.1,2.1c1.1,0.7,2.4,1.7,3.7,3c1.1,1,2.1,2.3,3,3.9l2.4,4.8l1.7,5.7l0.3,5.9l-0.3,3.6c0.5,0.2,1,0.4,1.5,0.9
			l3.7,3c0.5,1.4,1.6,2,3.3,2c1.2,0.8,2.5,1.4,4.1,1.8c0.9,1.1,2.2,1.6,3.8,1.6c0.8-0.4,1.5-0.9,2.2-1.4l1.5,0.9l2.4,5.1l-0.6,1.2
			l2.5,2.1c1.3,0.7,2.9,1.1,4.6,1.2c1.1-0.6,2.3-1.3,3.5-2.1c0.8-1.2,1.8-2.5,3-3.7c1.4-0.8,3.2-1.3,5.2-1.6
			c1.7-0.8,3.6-1.3,5.8-1.7l0.7,0.7l3.8-1.9c1.6-0.2,3.3,0,5,0.6l-0.4,1.1c-0.9-0.3-1.8-0.5-2.8-0.4c-0.9,0.3-1.9,0.7-2.8,1.2
			l0.6,0.2l1-0.4l0.7,1.3l-2.4,0.6l-1.7-0.6l-4.7-0.1c-1.6,0.9-3.4,1.5-5.5,1.9c-1.5,0.3-2.6,1.3-3.4,2.9c0.1,0.4,0.3,0.6,0.7,0.7
			c1-0.2,2.2-0.5,3.4-1l1.3-0.7l0.5,1.8l-2.1,0.6c-1.5,0.6-3.3,1-5.3,1.3l-5,1.3l-4.7-0.7l-0.8,1.8l-3.3-0.1
			c-0.4-1.3-1.4-2.4-2.9-3.1l-4.5,0.7c-0.2,0.3-0.6,0.5-1,0.7l-2.9,0.4l5.6,4.6c0.9,1,2.1,2,3.5,3c1.1,0.4,2.3,0.6,3.6,0.6l0.7-0.7
			l3.7-0.8l0.6,0.2c1.2-0.4,2.3-1.1,3.3-1.8c0.3-1.2,0.9-2.5,1.6-3.8l4.1,0.2l4.5-0.9c0.4-0.1,0.7-0.4,1-0.7l2.5,0.4l0.5,1.3
			l-0.6,1.2c0.5,0.5,1.1,1,1.8,1.4l1.3,1.2l-0.9,3.4l-1.6,0.5l0.5-3.9c-1.3,0.4-2.5,0.9-3.6,1.6l1.6,0l-0.1,1.1l-3.2,0.2l-5-0.6
			c-0.6,1.2-1.6,2.2-2.9,2.9c-0.4,1.2-1,2.4-1.9,3.5l-2.3,0.9l-3.7,0.6c-1.4,0.4-2.6,1.2-3.7,2.5c-0.7,1.2-1.6,2.5-2.7,3.9l-5.7,7.6
			c-0.8,1.1-1.8,2.3-3,3.7l-6.1,1.2c-1.6-0.3-3.1-1-4.5-2.3c-1-0.9-2.2-1.8-3.7-2.7c-0.9-1-2.1-2.1-3.5-3.3c-1-1-2.3-2-3.7-3
			c-0.9-1-2.1-2-3.5-3l-1.1,1.8l-0.1,1.4l0.7,1l-0.7,2.6l-3.4,2.7c-0.9-0.2-1.8-0.5-2.6-1l-1.2,1.3c-1.4,0.4-2.5,1.4-3.4,2.9l-1.6,4
			c-0.6,1.2-1.5,2.5-2.7,3.9l0,1.6c-1,0.1-2.1,0-3.3-0.3l-0.4-0.8l-0.1-2.4l1.1-1.5c-0.8-0.2-1.5-0.7-1.9-1.6l1.6-0.5l1.5-2.7
			c1-1,1.8-2.3,2.2-3.9l0.9-2.9l-1.7-0.6c-2-0.1-4,0.1-6.2,0.4l-6.4,0.9c-1.5,0-3.3-0.2-5.3-0.8c-1.2-0.7-2.4-1.7-3.7-3
			c-1.3-0.6-2.6-1.5-4-2.7c-0.4-1.3-1.1-2.6-1.9-3.8c-0.7-1.3-1.3-2.9-1.8-4.6c0-0.5,0.1-1.1,0.3-1.7l-1.8-2.7
			c-1.2-0.8-2.2-1.9-3-3.4l0.3-1.9l-2.2-2.1c-0.1-1.5,0.3-3,1.2-4.5l-1.1-3.6l0.9-1.5l-0.1-2.4c-0.1-0.3-0.3-0.5-0.7-0.7l-0.2-1.1
			l0.1-1.1c0.9-1.3,2.3-2.3,3.9-3c1.6-0.7,2.7-1.8,3.3-3.5c-0.9-1.1-1.4-2.5-1.7-4.1c-0.3-1.5-1.1-2.9-2.3-4.3l0.3-1.9l-2.7,0.1
			l-0.7,0.7l-7,0.8l-1.2-2.3c0.3-1.4,1.2-2.3,2.6-2.8l5.8-1.7l-0.3-3.5c1.1-1,1.7-2.4,1.6-4l-4-1l-3.6-1.9l-1.1-1.7
			c0.4-0.6,0.5-1.3,0.5-2.2c-1.1-0.8-2.4-1.8-3.7-3c-0.7-1.5-1.2-3.2-1.6-5.2c0.7-1.3,1.8-2.1,3.5-2.4l1.7,0.6l-0.5,2.2l0.7,0.7
			c0.5,1.3,1.5,2.2,2.9,2.8l2.1,1.1l0.2-2.5l3.1-2.9c0.7-1.2,1.2-2.6,1.5-4.3L431.6,174.3z M424.2,188.7l0.4,0.8l-0.1-0.8
			L424.2,188.7z M438.3,204.3l3.7,24.5l-1.6,0.5l-5.4,0.8c-0.3,1.4-0.3,2.9-0.1,4.6l0.8,5.3l0.5,1.8l7.2-1.1l0.4,1l2.7,20l0.8,0.1
			l16.1-2.4l-0.1-2.4l-2.5-17c0-0.4,0.1-0.7,0.4-0.9l11.8,9.7c0.8,0.8,1.8,1.7,2.8,2.6l20.4,17.4l1.8,0.8l9.3-12.8l-27.2-23.2
			l3.2-2.6l2.3-3.1l1.4-3.7l0.7-4.2l-0.1-2.4l-1-6.4l-0.5-1.3l-1.9-3.8l-2.6-2.9l-3-2l-4-1c-1.3-0.3-2.8-0.4-4.4-0.4L438.3,204.3z
			 M454.7,279.4l0.8,1.8l-3.2,0.2C452.7,280.5,453.5,279.8,454.7,279.4z M456.9,213.5l6.7-1c1.5,0,3.1,0.4,4.8,1.2
			c1.1,1.2,2,2.7,2.6,4.5c-0.1,1.5-0.5,3.1-1.2,4.8c-1.2,1-2.7,1.9-4.5,2.6l-6.4,0.9L456.9,213.5z M470.3,262.9
			c-0.8,1.2-1.9,2.3-3.3,3.2c-0.7,0.5-1.3,1.1-1.9,1.9l1.3-0.5c1-0.3,2-1,2.7-2C469.7,264.8,470.1,264,470.3,262.9z M470.5,266.2
			l-0.4,1.1l1-0.7C471,266.4,470.8,266.2,470.5,266.2z M475.2,261.1c0.1,0.3,0.4,0.6,0.7,0.7L475.2,261.1z M487.6,278.3l3.5-0.5
			c0.8-0.1,1.5,0,2.2,0.2l-1.1,0.2l-2.1,0.9l-0.8-0.1C488.7,278.9,488.1,278.7,487.6,278.3z M494.7,230.8c0.1,1-0.1,2-0.4,3
			l-0.9,1.5l1.3-0.2l2.9,0.9c0.7,0.6,1.6,1,2.6,1.2l1.3-0.2l0.1-1.4l-0.1-0.5l-0.3,0c-0.6-0.6-1.3-1.3-2-2.2l-2.3-1
			C496.4,231.6,495.6,231.1,494.7,230.8z M504.6,236.4c-1.1,1-2.5,2-4.2,2.8c0.8,0.7,1.8,1.1,2.9,1.2l2.9-0.4l0.6,0.2l0.2-0.3
			l-0.3-2.1l0.7-0.9L504.6,236.4z M512,242.4l1.3,1.2l-4.1,3.3c-0.4-0.2-0.9-0.6-1.3-1.2l1.8-1.1C510.4,243.9,511.2,243.2,512,242.4
			z M508.4,236.6c0,0.9,0,1.9-0.1,3l3.8-0.3c-0.2-0.8-0.5-1.5-1.1-2C510.2,237.2,509.3,237,508.4,236.6z M515.1,255.8
			c0.2,0.3,0.5,0.6,0.9,0.7L515.1,255.8z M519.4,254.9l-0.3,1.7l1.3-0.5l3.2-0.7l0.1-0.8l-0.5,0.1l-1,0.7
			C521.3,255,520.3,254.9,519.4,254.9z M528.6,265.2l0.9,0.7l-0.2,2.5l-1.3,0.2C527.8,267.4,528,266.3,528.6,265.2z M536,260
			l1.4,0.3l-0.4,2.5c-0.4-0.1-0.8-0.3-1.2-0.6L536,260z M546.4,243.5l1.4,0.3l-0.1,2.7l-1.3,0.2
			C546.2,245.8,546.2,244.7,546.4,243.5z M553,247.4c0.3,0.2,0.7,0.5,1,0.9l-1.6,0.2L553,247.4z M559.1,253.4l1.3-0.2
			c-0.1,0.8-0.4,1.5-1.1,2.1L559.1,253.4z M562.6,251.5c0.7,0.1,1.3,0.5,1.8,1.1l-1.3,0.5l-0.6-0.2L562.6,251.5z"/>
	</g>
	<path class="st1" d="M12.5,112.9h3.7c0.1,0.6,0.4,1.2,0.7,1.9l6,5.9c0.9,0.2,1.9,0.3,3,0.4l1.1-0.7l3.7-0.4v-1.9
		c1.4-0.5,2.8-1.2,4.1-2.2l3.4-1.1l4.5,3l4.1,1.5l3,3c0.5,1.4,1.4,2.4,2.6,3l4.1,1.5c1.2,0,2.5-0.4,3.7-1.1c1.6-0.2,3-0.6,4.5-1.1
		l4.9-1.5c1.6-0.4,3.4-0.6,5.2-0.7h60.5c1.3-0.9,2.8-1.5,4.5-1.9l5.2,0.7l4.1-0.7c1.2-0.7,2.4-1.2,3.7-1.5l3,2.6l5.6,6.3l1.1,4.8
		l3.4,3l1.5,4.5l-0.7,5.2c-1.4,0.3-2.8,0.9-4.1,1.9v4.8l-0.4,1.1c-0.3,1.5-0.8,3-1.5,4.5c-0.8,1.1-1.8,2.2-3,3.3
		c-1.2,0.6-2.7,1.1-4.5,1.5l-17.2,0.7l-3,3.3l-1.1,7.8c-0.1,1.2-0.3,2.4-0.7,3.7l-0.7,1.9l2.2,1.1l4.1,1.5c1.2,0.6,2.6,1.1,4.1,1.5
		c1.1,0.8,2,2,2.6,3.7l-0.4,5.6l4.5-0.7l4.1,1.1l3.4,3c-0.8,1.1-1.9,2-3.4,2.6c-1.2,0.6-2.4,0.9-3.7,1.1l-4.1-0.4l-3,0.7l-1.1-1.5
		c-1-1-1.9-2.1-2.6-3.3l-1.9-4.1l1.1-2.2l-1.5-1.1l-3.4,1.1l0.4,3.3l-0.4,1.1l0.7,1.1c-0.4,0.7-0.7,1.6-0.7,2.6
		c-0.4,1.4-0.8,3-1.1,4.8l-0.4,11.2l-2.2,3.7c-0.4,1.4-0.7,2.9-0.7,4.5c-0.1,1.1-0.3,2.4-0.7,3.7l0.7,1.1l3.7,1.9
		c1.2,0.7,2.5,1.5,3.7,2.6l1.1,1.1l-1.1,3l0.4,4.8l-1.9,2.2l1.1-0.4l3.7,0.7l2.6-0.7l-1.1-3c0.2-1.7,1.1-2.9,2.6-3.7l10.5,0.4
		c1,0.6,1.9,1.5,2.6,2.6c-0.9,0.3-1.9,0.6-3,0.7c-0.2-0.4-0.6-0.7-1.1-0.7l-4.1,0.4l-2.6-0.4h-1.1l0.4,0.7l-0.4,5.6
		c-1.6,0.4-3.2,0.6-4.9,0.7l-4.1,0.4l-1.1-0.4c-1.6-0.4-2.9-1.2-4.1-2.2c0.6-1.2,1.3-2.5,2.2-3.7c0.1-1.1,0.4-2.2,0.7-3.3
		c-0.3-0.4-0.6-0.9-0.7-1.5l0.7-1.9l-2.6-0.4c-1.4-0.4-2.7-1.3-3.7-2.6l-1.9,0.4l-0.4-0.4l0.7-2.2l-0.7-3.3l0.7-1.1
		c-0.6,0.8-1.1,1.8-1.5,3l-1.5,3.7c-0.9,1-2,1.9-3.4,2.6c-0.6,0.4-1.1,1.1-1.5,1.9c0.6,0.2,1.2,0.6,1.9,1.1l-0.4,4.1l-0.7,3v1.1h0.4
		l2.2,3.7c0.7,1.2,1.4,2.5,1.9,4.1c0.9,1,1.7,2.2,2.6,3.7l0.4,3.3l-1.5,0.7c-0.7,1.2-1.6,2.5-2.6,3.7l-1.9,3.7l1.9,4.5
		c1,0.9,1.9,2,2.6,3.3l3.7,2.2c1.7,0.2,2.8,1.2,3.4,3c0.2,1.6,0.6,3.2,1.1,4.8c1.1,0.9,2.3,1.6,3.7,2.2l0.7,2.6l-2.6-0.4
		c-1.2-0.7-2.4-1.7-3.4-3l-1.9,0.7l-1.1-2.2c-0.1-1.6-0.5-3.2-1.1-4.8l-3.4-2.6c-1.1-0.8-2.2-1.8-3.4-3c-0.8-1-1.4-2.1-1.9-3.3
		c-0.6-1.4-1.1-2.9-1.5-4.5l0.4-3.3l1.9-0.4c0.1-1.3,0.7-2.3,1.9-3c0.4-1.2,0.7-2.6,0.7-4.1l-3.7-7.4c-0.7,0.9-1.2,1.9-1.5,3
		l-2.2,4.1l-1.1,4.1c-0.4,1.2-1.2,2.5-2.2,3.7c0.2,1,0.6,2,1.1,3l-0.7,1.1l-2.6,11.5l1.1,0.7l-0.7,5.2c-0.4,1.5-1.1,3-1.9,4.5
		l-5.6,6.3c-0.2,1.2-0.7,2.5-1.5,3.7c-0.6,1.1-1.5,2.1-2.6,3c-0.3,1.2-0.6,2.7-0.7,4.5l-0.7,0.7l0.4,0.4l0.4,3.3
		c-0.4,1.4-1,2.7-1.9,4.1c-1.1,0.8-2.5,1.5-4.1,2.2l-2.2-0.7c0.2-0.8,0.6-1.5,1.1-2.2c1.1-0.6,2.2-1.5,3.4-2.6l0.4-2.2l-0.4-0.7
		v-5.6l1.5-1.5c0.7-1.2,1.6-2.3,2.6-3.3c0.7-1.1,1.5-2.4,2.2-3.7l1.9-4.1l3-3.3l1.9-4.1l0.4-1.1l-0.4-3.3c-0.8-0.8-1.8-1.4-3-1.9
		c-0.7,0.9-1.3,2-1.9,3.3c-0.2,1.5-0.6,3-1.1,4.5c-0.9,0.7-1.9,1.5-3,2.2L91,288l-1.1-0.7l-3.4,0.7l-1.5-1.1l-2.2,1.1
		c-1.2,0.4-2.5,1.2-3.7,2.2c0,1.4-0.2,2.9-0.7,4.5c0.1,0.4,0.4,0.7,0.7,1.1l-1.1,3c-1.1,0.9-2.1,2-3,3.3c-1.2-0.6-2.3-1.5-3.4-2.6
		c-0.6-0.7-1.1-1.6-1.5-2.6l1.9-0.7l2.2-3.3l0.4-1.5l-0.4-4.1c1-0.9,1.9-2,2.6-3.3l4.5-1.9l1.1,0.7l3.4-0.7c1,0.4,2.1,0.6,3.4,0.7
		c1.3-0.1,2.7-0.4,4.1-0.7l2.6-3.3l0.4-4.8c1.2-1.1,2.7-1.7,4.5-1.9c0.7-0.9,1.1-2,1.1-3.3c0.9-0.7,1.5-1.6,1.9-2.6l-1.1-4.1
		c0.6-0.9,1-2,1.1-3.3c-0.6-0.9-1-2-1.1-3.3l-1.5-4.8c-1.2-0.4-2.4-0.9-3.7-1.5c-1.1-0.7-2.2-1.5-3.4-2.6c-0.9-1.1-2.1-2-3.4-3
		c-0.7-1.1-1.7-2.1-3-3l-2.6-3.3l-0.7-3.3l0.7-1.1c-0.7-0.9-1.1-2-1.1-3.3l0.4-2.2l-0.4-1.5l0.4-0.7l-0.4-0.4
		c-0.2-1.5-0.6-3.2-1.1-4.8l-1.5-8.2l0.4-1.1c0.2-1.4,0.6-2.8,1.1-4.5l-0.7-3.7l0.4-1.1c0.7-1.2,1.6-2.5,2.6-3.7l-0.7-4.8
		c0.7-1.4,1.2-3,1.5-4.8v-8.2c-0.8,0.2-1.4,0.7-1.9,1.5l-3,3c-0.7,1.4-1.2,3-1.5,4.8v5.9c-0.4,1.4-1.4,2.3-3,2.6l-2.6,2.2
		c-0.5,1.4-1.2,2.8-2.2,4.1c-1.4,0.4-2.2,1.4-2.2,3c-0.7,0.9-1.2,2-1.5,3.3l-1.1,0.7l-3-1.1c-0.4-1.5-0.6-3.1-0.7-4.8l-0.7-2.6
		L63,201c1.3-0.5,2.6-1.2,3.7-2.2c1.6-0.2,2.7-1.1,3.4-2.6c0.6-1.4,1.7-2.4,3.4-3c0.4-1.1,0.7-2.4,0.7-3.7l0.4-5.6c0.7-1,1.7-2,3-3
		l2.6-3.7l1.9-4.1c0.9-0.7,1.4-1.7,1.5-3c-0.1-1.3-0.5-2.7-1.1-4.1c-0.6-1.3-1.4-2.4-2.6-3.3L68.2,162l-3.4-2.6
		c-0.7-1.2-1.5-2.5-2.2-4.1l-0.7-5.2c-0.1-1.5-0.4-3.2-1.1-4.8l-1.5-0.7l-2.6,1.1l-4.1-2.2l-0.4,3l-1.5,2.2l-1.9-0.7l-1.1,1.1
		c-0.8-0.3-1.8-0.6-3-0.7c-0.4,0.2-0.8,0.6-1.1,1.1l0.7,3c-1,0.9-2.2,1.6-3.7,2.2c-0.5-0.2-0.9-0.6-1.1-1.1l1.9-5.6l-1.9-0.7
		c-0.6-1.3-1-2.8-1.1-4.5l2.2-1.5l1.5,0.7c1.1-0.7,2.4-1.3,3.7-1.9c0.7-1.1,1.6-2.1,2.6-3l-3.7-2.2c-1.1-0.6-2.2-1.5-3.4-2.6
		l-4.1-0.7l-1.1-4.1l-2.2-4.1l0.4-1.5l-0.4-0.4l-1.5,1.5c-1.4,0.4-3.1,0.6-4.9,0.7l-4.9,1.1l-3.4-2.6c-0.6-1.1-1.3-2-2.2-3
		c-1.1-0.7-2.1-1.7-3-3l-2.2-0.7L12.5,112.9z M30.4,103.6c0.3,0.1,0.6,0.3,0.7,0.7C30.9,104.3,30.7,104,30.4,103.6z M33.8,92.1h1.5
		l-1.9,1.5L33.8,92.1z M40.2,120l0.4,3.7c1.2,0.8,2.3,1.8,3.4,3l3.7,2.6c1.2,0.6,2.6,1.1,4.1,1.5l-0.4-1.9c0.3-0.1,0.5-0.4,0.7-0.7
		l-2.2,0.4l-2.6-3.3c-0.6-1.4-1.7-2.4-3.4-3L40.2,120z M50.6,136c0.1,0.3,0.4,0.6,0.7,0.7C51.3,136.5,51.1,136.2,50.6,136z
		 M72.3,132.6v16.7l0.4,3h19.1c1.5,0,3.1,0.2,4.9,0.7v75.5l1.5-0.7l21.3-17.8l0.7-4.8v-50.2c0.1-1.6,1-2.5,2.6-2.6l16.4-0.4
		c1.2-0.1,2.4-0.5,3.7-1.1l4.1,1.5l5.2-0.4l-0.4-16l0.4-3.3H72.3z"/>
	<path class="st1" d="M239.7,96.3c1.6,0.3,3.1,0.9,4.5,1.9l0.7,5.2c0.4,1.3,1.1,2.7,1.9,4.1l0.4,4.8l-0.4,4.1l0.4,1.1l-0.7,4.5
		l1.1,4.1c1.2-0.4,2.6-0.7,4.1-0.7l4.1-0.4l1.5,0.4l5.2,0.7l8.2-3.7l28.8-0.4l0.7,0.4c1.3,0.4,2.7,1.1,4.1,1.9c1.1,0.8,2.1,1.8,3,3
		l6.7,11.2l2.2-3.3l0.7-4.1l5.6-6.3l4.1-1.9l5.2-0.7h23.9l4.9,1.5l3,3l1.9,4.1l0.4,4.1l-0.7,1.1c-0.5,1.3-1.1,2.7-1.9,4.1
		l-16.1,25.7c-0.6,1.4-0.9,3-1.1,4.8c-0.2,1.6-0.6,3.2-1.1,4.8l-4.5,1.5l-1.5,2.2c0.3,0.4,0.6,0.9,0.7,1.5l1.9,4.1
		c0,1.5,0.7,2.8,2.2,3.7c0.7,1.3,1.2,2.8,1.5,4.5l3,2.2c0.3,0.8,0.6,1.8,0.7,3l-1.1,1.1l1.1,4.8l-0.7,3.7l1.1,4.1l-3,10l2.6,2.6
		c0.9,0.7,2.1,1.3,3.4,1.9l2.6,3c1.1,0.9,2.3,1.6,3.7,2.2l3.7,2.6c0.7,1,1.2,2.2,1.5,3.7c0.9,1.1,1.6,2.3,2.2,3.7
		c-0.8,1.1-1.9,2-3.4,2.6c-0.9,0.5-1.9,0.9-3,1.1l-1.1-1.1c-0.7-1.1-1.7-2-3-3l-10.5-7.4l-3-2.6l-2.6,0.7l-1.5-1.9
		c-0.7-1.1-1.6-2.2-2.6-3.3c0.3-1.5,0.8-3,1.5-4.5l0.7-5.2c0.5-1.2,0.7-2.5,0.7-4.1l-0.7-4.8l0.7-5.2l-0.4-3l0.7-0.7l-0.4-0.4
		l-2.2-1.9v13.8c-0.1,1.7-0.4,3.4-0.7,5.2c-0.5,1.3-1.1,2.7-1.9,4.1c-1.1,0.9-2.3,1.8-3.7,2.6l-4.9,1.1h-6l-3,3l-2.2-1.1
		c-0.4,0.4-0.9,0.8-1.5,1.1l-4.1-1.5c-1-0.9-2.4-1.4-4.1-1.5l-5.2-0.7c-1.2-0.6-2.4-1.3-3.7-2.2l-2.6-3.3l-1.1-5.2v-15.2
		c0-0.6-0.2-0.9-0.7-1.1l-4.5-0.7c-1.2-0.2-2.5-0.7-3.7-1.5c-0.6-1.2-1.3-2.4-2.2-3.7l-0.4-4.8l0.4-4.1l-0.4-1.1l0.4-3l-0.4-2.6
		l-2.6-3.3l-4.5-1.5l-7.1-4.5c-1.1-0.8-1.9-1.8-2.6-3c-1.1-0.9-1.9-2-2.6-3.3c-0.6-1.2-1.3-2.4-2.2-3.7c-0.5-1.5-0.7-3.1-0.7-4.8
		l0.7-1.1c-0.4-0.7-0.8-1.6-1.1-2.6c-1.3-0.8-2.1-2-2.2-3.7l-4.5-0.7l-2.6-0.7l-0.7,0.7h-1.1c-1.1-0.9-1.9-2-2.6-3.3
		c-0.5-1.2-1.2-2.4-2.2-3.7l-3-3l-1.5-4.8c0.1-1.6,0.3-3.3,0.7-5.2c-0.6-1.1-0.9-2.3-1.1-3.7l-0.4-5.2l0.7-3.3l-0.4-1.1
		c-0.1-0.9-0.2-1.9-0.4-3l0.4-0.7l0.7-1.1l-0.4-3L239.7,96.3z M268.1,145.7c-0.1,1.4-0.3,2.9-0.7,4.5l4.5,5.2
		c1.2,0.4,2.3,1.1,3.4,1.9l-1.1-3c-0.6-0.9-1.2-1.9-1.9-3c-0.6-0.9-1.2-1.9-1.9-3L268.1,145.7z M268.1,145.3v-0.7h-0.4L268.1,145.3z
		 M272.6,132.3l22.4,36.1l2.2,2.6c0.4,1,1.1,2,1.9,3c0.4,1,1.1,2,1.9,3l1.5,3.3v10c0.1,1.1,0.5,2.4,1.1,3.7c0.5,0.8,1.2,1.6,2.2,2.2
		l6,4.1l1.9,3l0.7,4.1l-0.4,3c0.3,1,0.8,1.9,1.5,2.6h9.7l0.7-3.7v-29.4l1.5-3.3l1.9-3l1.1-3l1.5-1.5c-1.1-0.5-1.9-1.2-2.6-2.2
		c-0.9-0.6-1.8-1.5-2.6-2.6l-0.4-3.7l-2.2-2.6c0.4-1,0.6-2.1,0.7-3.3c-0.4-1-0.6-2.1-0.7-3.3l-2.6-2.2c-0.7,0.1-1.5,0.5-2.2,1.1
		l-3.4,6.3c-0.5,0.9-1.2,1.6-2.2,2.2l-13.8-24.5c-0.8-0.8-1.8-1.4-3-1.9H272.6z M275.6,158h0.7l-0.4-0.7L275.6,158z M302.5,201.9
		v8.2l-0.4,2.6l5.2,0.4l0.4-5.9c-0.1-0.5-0.3-0.9-0.7-1.1C305.8,204.7,304.3,203.3,302.5,201.9z M329.8,132.3l-5.6,9.7l1.1,0.7
		l4.5,4.1l2.6,6.7l-0.4,0.7l-1.1,0.4l1.5,2.2c0,1.1,0.4,2,1.1,3l-0.7,3l2.2,2.2l17.6-27.9c1-1.4,1.9-3,2.6-4.8H329.8z"/>
	<g>
		<g>
			<path class="st1" d="M205.8,110.4c0.1,3,0.3,6,0.4,9.1c-1.7,0.1-3.4,0.2-5.3,0.2c-0.1-3.1-0.3-6-0.4-9.1
				C202.2,110.5,204,110.5,205.8,110.4 M209.7,106l-4.2,0.2l-2.8,0.1l-2.5,0.1l-4.2,0.2l0.2,4.2l0.3,7.1l0.1,2l0.2,4.2l4.2-0.2
				l2.8-0.1l2.5-0.1l4.2-0.2l-0.2-4.2l-0.3-5.5l-0.2-3.6L209.7,106L209.7,106z"/>
		</g>
		<g>
			<path class="st1" d="M154.7,170.5c0.1,1.8,0.2,3.5,0.3,5.3c-3,0.1-6.1,0.3-9.2,0.4c-0.1-1.8-0.2-3.5-0.3-5.3
				C148.6,170.8,151.6,170.7,154.7,170.5 M158.7,166.2l-4.2,0.2l-4,0.2l-5.2,0.2l-4.2,0.2l0.2,4.2l0.1,1.1l0.2,4.2l0.2,4.2l4.2-0.2
				l9.2-0.4l4.2-0.2l-0.2-4.2L159,173l-0.1-2.7L158.7,166.2L158.7,166.2z"/>
		</g>
		<g>
			<path class="st1" d="M211.4,221.5c0.1,3,0.3,6,0.4,9.1c-1.8,0.1-3.5,0.2-5.3,0.3c-0.1-3-0.3-6-0.4-9.1
				C207.8,221.7,209.5,221.6,211.4,221.5 M215.3,217.2l-4.2,0.2l-2.2,0.1l-3.1,0.1l-4.2,0.2l0.2,4.2l0.1,2.9l0.3,6.2l0.2,4.2
				l4.2-0.2l2.3-0.1l3-0.1l4.2-0.2l-0.2-4.2l-0.1-2.6l-0.3-6.6L215.3,217.2L215.3,217.2z"/>
		</g>
		<g>
			<path class="st1" d="M206.3,168.7c1,0,1.9,0.8,1.9,1.8c0,1-0.8,2-1.9,2c0,0,0,0,0,0c-1,0-1.9-0.8-1.9-1.8
				C204.3,169.7,205.2,168.7,206.3,168.7C206.2,168.7,206.3,168.7,206.3,168.7 M206.3,164.5L206.3,164.5l-0.1,0
				c-1.6,0-3.2,0.7-4.3,1.9c-1.1,1.2-1.7,2.8-1.6,4.4c0.2,3.2,2.9,5.8,6.1,5.8h0l0.1,0c1.6,0,3.2-0.7,4.3-1.9
				c1.1-1.2,1.7-2.8,1.7-4.4C212.2,167.1,209.5,164.5,206.3,164.5L206.3,164.5z"/>
		</g>
		<g>
			<path class="st1" d="M266.6,165.4c0.1,1.7,0.2,3.4,0.3,5.2c-3,0.1-6,0.3-9.2,0.4c-0.1-1.8-0.2-3.5-0.3-5.2
				C260.5,165.7,263.5,165.5,266.6,165.4 M270.6,161l-4.2,0.2l-3.9,0.2l-5.3,0.2l-4.2,0.2l0.2,4.2l0.1,2.1l0.2,3.2l0.2,4.2l4.2-0.2
				l9.2-0.4l4.2-0.2l-0.2-4.2l-0.3-5.3L270.6,161L270.6,161z"/>
		</g>
		<g>
			<path class="st1" d="M206.2,121.7c26.6,0,47.7,20.4,49.2,46.1c1.3,20.7-10.2,38.8-27.7,47.2v0c-1.6,0.7-3.2,1.4-4.8,2
				c-4.5,1.6-9.4,2.6-14.5,2.9c-0.7,0-1.4,0-2.2,0c-4.2,0-8.3-0.5-12.3-1.5h0c-0.8-0.2-1.5-0.4-2.3-0.7c-0.5-0.2-1-0.3-1.5-0.5
				c-1.1-0.4-2.2-0.8-3.4-1.3c-16.7-7-28.9-22.9-30.1-42.6c-1.6-27.1,19.5-50.5,47.2-51.6C204.7,121.8,205.5,121.7,206.2,121.7
				 M204.7,166.5c-0.1-1.2-0.1-2.3-0.2-3.4c-0.1-1.4-0.1-1.4-1.4-1.4c-0.1,0-0.1-0.1-0.2-0.1c0-0.7-0.1-1.4-0.1-2.2
				c0.5-0.1,1-0.1,1.4-0.2c-0.1-2.7-0.3-5.3-0.4-8c-0.5,0-1,0-1.5-0.1c0-0.8-0.1-1.5-0.1-2.3c0.5-0.1,1-0.1,1.4-0.2
				c-0.1-2.7-0.3-5.3-0.4-7.9c-0.5,0-1,0-1.4,0c0-0.8-0.1-1.5-0.1-2.3c0.5-0.1,1-0.1,1.4-0.2c-0.1-1.3-0.1-2.5-0.2-3.7
				c-0.6,0-1.1,0-1.7,0c-0.1-2.3-0.2-4.5-0.3-6.7c-0.9,0.1-1.8,0.2-2.7,0.4c-8.7,1.4-19.4,6.4-26.9,16.1c-2.8,3.6-4.9,7.5-6.4,11.6
				c0,0,0,0,0,0c-0.8,2.2-1.4,4.5-1.9,6.8c0,0,0,0,0,0.1c-0.2,1.1-0.4,2.1-0.5,3.2c0,0.1,0,0.3-0.1,0.4c-0.1,1.2-0.2,2.4-0.3,3.7
				c2.5-0.1,4.8-0.2,7.2-0.3c0.1,0.6,0.1,1.1,0.2,1.6c1.1-0.1,2.2-0.1,3.3-0.2c0-0.5,0-1,0-1.5c0.8,0,1.5-0.1,2.3-0.1
				c0.1,0.5,0.1,1,0.2,1.5c2.7-0.1,5.3-0.2,7.9-0.4c0-0.5,0.1-1,0.1-1.5c0.8,0,1.5-0.1,2.3-0.1c0.1,0.5,0.1,1,0.2,1.5
				c0,0,0.1,0,0.1,0c2.7-0.1,5.3-0.2,7.9-0.4c0-0.5,0.1-1,0.1-1.5c0.8,0,1.5-0.1,2.3-0.1c0.1,0.5,0.1,1,0.2,1.6
				c1.8-0.1,3.4-0.2,5-0.2c0,0.8,0.1,1.6,0.1,2.4c-1.7,0.1-3.4,0.2-5,0.2c0,0.5-0.1,1-0.1,1.4c-0.7,0.2-1.1,0.3-1.4,0.3
				c-0.7,0-0.9-0.4-1.1-1.5c-0.4,0-0.9,0-1.3,0.1c-2.2,0.1-4.4,0.2-6.7,0.3c0,0.5,0,1-0.1,1.4c-0.8,0-1.6,0.1-2.3,0.1
				c-0.1-0.5-0.1-0.9-0.2-1.4c-2.7,0.1-5.3,0.3-8,0.4c0,0.5,0,1-0.1,1.4c-0.8,0-1.6,0.1-2.3,0.1c-0.1-0.5-0.1-1-0.2-1.4
				c-1.2,0.1-2.2,0.1-3.3,0.2c0,0.5,0,1,0,1.6c-2.4,0.1-4.8,0.2-7.2,0.3c1.8,17.4,14.1,30.7,28.4,35.9c0,0,0,0,0,0
				c4.3,1.6,8.8,2.4,13.3,2.4c0.3,0,0.6,0,0.8,0c-0.1-2.4-0.2-4.7-0.3-7.1c0.6-0.1,1.1-0.2,1.6-0.2c-0.1-1.1-0.1-2.1-0.1-3.1
				c-0.5,0-1-0.1-1.4-0.1c0-0.8-0.1-1.5-0.1-2.2c1.5-0.3,1.5-0.3,1.4-1.8c-0.1-1.6-0.2-3.3-0.2-4.9c0-0.1,0-0.2,0-0.4
				c0-0.4,0-0.7-0.1-1.1c-0.6,0-1.1,0-1.5-0.1c0-0.8-0.1-1.5-0.1-2.3c0.5-0.1,1-0.1,1.5-0.2c-0.1-2.7-0.3-5.3-0.4-7.9
				c-0.5,0-1,0-1.5-0.1c0-0.8-0.1-1.5-0.1-2.3c0.5-0.1,1-0.1,1.5-0.2c-0.1-1.7-0.2-3.3-0.2-5.1c0.5,0,0.8,0,1.1-0.1
				c0.2,0,0.3-0.1,0.5-0.1c0.6,0,0.9,0.4,0.9,1.2c0,1.3,0.1,2.6,0.2,3.9c0.6,0,1,0,1.5,0c0,0.8,0.1,1.5,0.1,2.3
				c-0.5,0.1-1,0.1-1.4,0.2c0.1,2.7,0.3,5.3,0.4,8c0.5,0,0.9,0,1.4,0c0,0.8,0.1,1.5,0.1,2.3c-0.5,0.1-0.9,0.1-1.4,0.2
				c0,0.3,0,0.5,0,0.8c0.1,2.4,0.2,4.8,0.3,7.2c0.5,0,1,0.1,1.4,0.1c0,0.8,0.1,1.5,0.1,2.3c-0.3,0-0.5,0.1-0.7,0.1
				c-0.2,0-0.5,0.1-0.7,0.1c0.1,1.1,0.1,2.1,0.2,3.2c0.6,0,1.1,0,1.6,0c0.1,2.5,0.2,4.8,0.3,7.2c1.3-0.1,2.5-0.3,3.7-0.5
				c0.8-0.2,1.6-0.4,2.4-0.6c0.3-0.1,0.7-0.2,1-0.3c1.1-0.3,2.1-0.6,3.1-1c0.1,0,0.1,0,0.2-0.1c1.1-0.4,2.2-0.9,3.2-1.4c0,0,0,0,0,0
				c14.7-6.9,25-22.1,24.9-38.5c-2.3,0.1-4.6,0.2-6.8,0.3c-0.1-0.6-0.1-1.1-0.2-1.5c-1.2,0.1-2.3,0.1-3.5,0.2h0c0,0-0.1,0-0.1,0
				c0,0.5,0,0.9-0.1,1.4c-0.8,0-1.5,0.1-2.3,0.1c-0.1-0.5-0.1-0.9-0.2-1.4c-2.7,0.1-5.4,0.3-8,0.4c0,0.5,0,1,0,1.4c0,0-0.1,0-0.1,0
				c-0.8,0-1.5,0.1-2.2,0.1c-0.1-0.5-0.1-0.9-0.2-1.4c-2.7,0.1-5.3,0.3-8,0.4c0,0.5,0,1-0.1,1.4c0,0,0,0,0,0c-0.8,0-1.5,0.1-2.3,0.1
				c-0.1-0.5-0.1-1-0.2-1.5c-1.5,0.1-2.9,0.1-4.3,0.2c0-0.8-0.1-1.6-0.1-2.4c1.5-0.1,2.9-0.1,4.3-0.2c0-0.6,0-1,0-1.5
				c0.8,0,1.6-0.1,2.3-0.1c0.1,0.5,0.1,1,0.2,1.4v0c0,0,0,0,0,0c1.9-0.1,3.8-0.2,5.7-0.3c0.7,0,1.5-0.1,2.2-0.1c0-0.5,0-1,0.1-1.5
				c0.8,0,1.6-0.1,2.3-0.1c0.1,0.5,0.1,1,0.2,1.4c2.7-0.1,5.4-0.3,8-0.4c0-0.5,0.1-1,0.1-1.5c0.8,0,1.5-0.1,2.3-0.1
				c0.1,0.5,0.1,1,0.2,1.4c1.2-0.1,2.4-0.1,3.6-0.2c0-0.6,0-1,0-1.7c2.3-0.1,4.5-0.2,6.8-0.3c-0.2-1.6-0.5-3.2-0.8-4.8
				c-0.1-0.4-0.2-0.7-0.3-1.1c-0.3-1.1-0.6-2.3-1-3.4c-0.1-0.4-0.3-0.8-0.4-1.2c-0.4-1.1-0.9-2.1-1.4-3.2c-0.2-0.3-0.3-0.6-0.5-1
				c-0.7-1.3-1.4-2.6-2.2-3.9c0,0,0,0,0,0c-7.7-11.9-21.1-19.7-35.1-19.9c-0.3,0-0.5,0-0.8,0c0,0,0,0,0,0c0.1,2.2,0.2,4.4,0.3,6.6
				c-0.6,0.1-1.1,0.1-1.6,0.2c0.1,1.3,0.1,2.5,0.2,3.7c0.5,0,0.9,0,1.4,0c0,0.8,0.1,1.5,0.1,2.3c-0.5,0.1-1,0.1-1.4,0.2
				c0.1,2.7,0.3,5.3,0.4,8c0.5,0,0.9,0,1.4,0c0,0.8,0.1,1.5,0.1,2.3c-0.5,0.1-0.9,0.1-1.4,0.2c0.1,2.7,0.3,5.3,0.4,7.9
				c0.5,0,1,0.1,1.4,0.1c0,0.8,0.1,1.5,0.1,2.3c-0.5,0.1-1,0.2-1.5,0.3c0.1,1.6,0.2,3.2,0.2,4.8
				C206.3,166.5,205.6,166.5,204.7,166.5 M206.2,117.6c-0.8,0-1.6,0-2.4,0.1c-14.5,0.6-27.9,6.9-37.6,17.6
				c-9.6,10.6-14.4,24.3-13.6,38.5c1.2,20.5,13.7,38.2,32.6,46.2c1.2,0.5,2.4,1,3.6,1.4c0.4,0.2,0.9,0.3,1.3,0.4l0.4,0.1l0.4,0.1
				c0.6,0.2,1.3,0.4,2,0.6c4.3,1.1,8.8,1.6,13.3,1.6c0.8,0,1.6,0,2.3,0c5.4-0.3,10.7-1.4,15.7-3.2c1.8-0.7,3.6-1.4,5.2-2.2
				c19.6-9.4,31.3-29.5,30-51.2c-0.8-13.5-6.7-26.1-16.5-35.4C233.2,122.7,220.1,117.6,206.2,117.6L206.2,117.6z M211.5,137.9l0.2,0
				l-0.2-3.9l-0.1-2c11.1,1.3,21.7,7.9,28.1,17.7c0.7,1,1.3,2.2,2,3.5c0.1,0.2,0.1,0.3,0.2,0.5c0.1,0.1,0.1,0.3,0.2,0.4
				c0.5,1,0.9,1.9,1.2,2.9c0.1,0.4,0.3,0.7,0.4,1.1c0.3,0.9,0.6,2,0.9,3c0,0.1,0.1,0.3,0.1,0.4c0,0.2,0.1,0.3,0.1,0.5l-2.1,0.1
				l-3.9,0.2l0,0.2l-2.2,0.1l-3.8,0.2l-0.1,1.5l-0.4,0l-0.2-1.4l-3.8,0.2l-1.2,0.1l-1.1,0.1l-3.8,0.2l-0.1,1.5l-0.3,0l-0.2-1.4
				l-3.8,0.2l-0.1,0l-2.2,0.1l-2.5,0.1l-0.1-2.5l-0.1-2.3l-0.2-3.7l-1.4-0.1l0-0.2l0-0.2l1.4-0.2l-0.2-3.8l-0.1-1.3l0-1l-0.2-3.8
				l-1.4,0l0-0.3l1.4-0.2l-0.2-3.8l-0.1-1.3L211.5,137.9L211.5,137.9z M167.3,163.6c0,0,0-0.1,0-0.1c0.4-2.1,1-4.2,1.7-6.2
				c1.4-3.7,3.3-7.3,5.8-10.5c5.4-7.1,13.7-12.3,22.3-14.2l0.1,2l0.2,3.9l0.2,0l0,0l0.1,2.3l0.2,3.8l1.4,0.1l0,0.3l-1.4,0.2l0.2,3.8
				l0,0.8l0.1,1.4l0.2,3.8l1.5,0.1l0,0.4l-1.4,0.2l0.2,3.8l0.1,1.7l0,0.5l0.1,2.2l0.5,0.3l-3.1,0.1l-2.3,0.1l-3.7,0.2l-0.1,1.5
				l-0.4,0l-0.2-1.5l-3.8,0.2l-0.3,0l-2,0.1l-3.8,0.2l-0.1,1.5l-0.4,0l-0.2-1.5l-3.8,0.2l-0.4,0l-1.6,0.1l0-0.2l-3.8,0.2l-2.5,0.1
				C167.1,164.9,167.2,164.2,167.3,163.6L167.3,163.6z M200.4,165.8l-0.2-1.1l0.2,0.1c0,0.2,0,0.5,0,0.7l0,0.2L200.4,165.8
				L200.4,165.8z M211.2,165.1L211.2,165.1L211.2,165.1L211.2,165.1L211.2,165.1L211.2,165.1z M206.1,170.6L206.1,170.6l0.9,0l0,0.2
				c-0.1,0-0.1,0-0.2,0c-0.2,0-0.5,0-0.7,0L206.1,170.6L206.1,170.6z M222.5,177l3.9-0.2l0.5,0l1.7-0.1l-0.1-4.2l0.2,4.2l0.1,0
				l3.8-0.2l0-1.4l0.4,0l0.2,1.4l3.8-0.2l2.3-0.1l0,0.1l3.9-0.2l2.2-0.1c-1.6,12.7-10.1,24.5-22.2,30.3l-0.1,0
				c-1,0.5-1.9,0.9-2.9,1.2c-0.1,0-0.1,0-0.2,0.1c-1,0.4-1.9,0.7-2.8,0.9c-0.2,0-0.3,0.1-0.4,0.1c-0.2,0-0.3,0.1-0.5,0.1l-0.3,0.1
				c-0.3,0.1-0.6,0.1-0.9,0.2l-0.1-2.5l-0.2-3.9l-0.2,0l-0.1-1.8l-0.2-3.7l-1.4-0.1l0-0.3l1.4-0.2l-0.2-3.9l-0.1-2.3l-0.2-3.9
				l-1.4,0l0-0.3l1.4-0.2l-0.2-3.8l-0.1-1.3l0-1l-0.1-2.5l2.5-0.1l1,0l1.2-0.1l3.8-0.2l0.1-1.4l0.3,0L222.5,177L222.5,177z
				 M200.8,176.5L200.8,176.5L200.8,176.5L200.8,176.5L200.8,176.5z M190.4,177.1l1.5-0.1c1.1,1.2,2.6,1.4,3.5,1.4
				c0.8,0,1.5-0.1,2.5-0.4l1.7-0.4l0.1,2.9l0.1,1.4l0,0.9l0.2,3.8l1.5,0.1l0,0.3l-1.5,0.2l0.2,3.8l0.1,1.1l0.1,1.2l0.2,3.8l1.5,0.1
				c0,0.2,0,0.3,0,0.5l-1.5,0.3l0.2,3.6l0.1,1.1l0,0.8l-0.2,0l0.2,3.8l0.1,2.3l0,0.2c-2.7-0.3-5.5-1-8.3-2
				c-12.7-4.7-22.1-15.4-25-28.1l2.5-0.1l3.9-0.2l0-0.2l0.7,0l1.1-0.1l3.8-0.2l0.1-1.4l0.1,0l0.2,0l0.2,1.4l3.9-0.2l2.3-0.1l3.8-0.2
				L190.4,177.1L190.4,177.1z"/>
		</g>
	</g>
	<g>
		<path class="st1" d="M239.1,170.7c0,0,0.1,0,0.1-0.1c0,0,0,0,0,0l0,0C239.2,170.6,239.2,170.6,239.1,170.7
			C239.1,170.6,239.1,170.6,239.1,170.7z"/>
		<path class="st1" d="M224.8,210.1c-0.5-0.4-1.1-0.7-1.8-1c0.1-0.1,0.1-0.7,0-1.8l-0.1-2.8l-0.3-6.5l-0.3-6.8l-0.1-2.7
			c-0.1-1.1-0.1-1.7-0.2-1.7c0-0.3-0.2-1.2-0.7-2.7c-0.4-1.5-0.9-3-1.4-4.7c-0.5-1.7-1-3.3-1.5-4.7c-0.2-0.7-0.4-1.3-0.5-1.7l0,0
			c-0.8,0-1.5,0.1-2.3,0.1c-0.1-0.5-0.1-1-0.2-1.5c-1.5,0.1-2.9,0.1-4.3,0.2c0-0.8-0.1-1.6-0.1-2.4c1.5-0.1,2.9-0.1,4.3-0.2
			c0-0.6,0-1,0-1.5c0.8,0,1.6-0.1,2.3-0.1c0.1,0.5,0.1,1,0.2,1.4v0v0c0.1-0.3,0.2-0.7,0.3-1.1c0.2-0.9,0.5-1.5,0.9-1.6
			c0.5-0.2,0.8-0.3,0.9-0.3c0.2,0,0.5,0.1,0.9,0.2c0.7,0.6,1.5,1.3,2.3,2.1c0.1,0.1,0.3,0.2,0.4,0.4l0,0c0.7,0,1.5-0.1,2.2-0.1
			c0-0.5,0-1,0.1-1.5c0.8,0,1.6-0.1,2.3-0.1c0.1,0.5,0.1,1,0.2,1.4c2.7-0.1,5.4-0.3,8-0.4c0-0.5,0.1-1,0.1-1.5
			c0.8,0,1.5-0.1,2.3-0.1c0.1,0.5,0.1,1,0.2,1.4c1.2-0.1,2.4-0.1,3.6-0.2c0-0.6,0-1,0-1.7c2.1-0.1,4.2-0.2,6.3-0.3
			c0.2-0.1,0.3-0.2,0.5-0.3c-0.2-1.6-0.4-3.1-0.8-4.6c-0.1-0.4-0.2-0.7-0.3-1.1c-0.3-1.1-0.6-2.3-1-3.4c-0.1-0.4-0.3-0.8-0.4-1.2
			c-0.4-1.1-0.9-2.1-1.4-3.2c-0.2-0.3-0.3-0.6-0.5-1c-0.7-1.3-1.4-2.6-2.2-3.9c0,0,0,0,0,0v0l-2.1,1.2l-0.9,0l-1.1,0
			c-0.2-0.1-0.6-0.2-1.1-0.3c-0.5-0.1-1.1-0.3-1.7-0.4c-0.6-0.2-1.2-0.3-1.7-0.5c-0.6-0.2-1-0.3-1.2-0.5l0.5,11.2
			c-0.3-0.1-0.7-0.3-1.1-0.7c-0.4-0.4-0.7-0.7-0.9-1l-7.8-9.1c-0.4-0.3-0.8-0.7-1.2-1.1c-0.4-0.4-0.7-0.7-0.9-0.7
			c-0.2,0-0.5-0.1-1.1-0.2c-0.6-0.1-1.2-0.3-1.8-0.5c-0.6-0.2-1.2-0.4-1.7-0.6c-0.5-0.2-0.8-0.3-0.9-0.4c-0.7-0.8-1.6-2.3-2.4-4.6
			c-0.9-2.2-1.9-4.5-3-6.9c-0.9-1.9-1.9-3.6-3.1-5.1l0,0c-0.3,0-0.6,0-0.9,0c0.1,2.2,0.2,4.4,0.3,6.6c-0.6,0.1-1.1,0.1-1.6,0.2
			c0.1,1.3,0.1,2.5,0.2,3.7c0.5,0,0.9,0,1.4,0c0,0.8,0.1,1.5,0.1,2.3c-0.5,0.1-1,0.1-1.4,0.2c0.1,2.7,0.3,5.3,0.4,8
			c0.5,0,0.9,0,1.4,0c0,0.8,0.1,1.5,0.1,2.3c-0.5,0.1-0.9,0.1-1.4,0.2c0.1,2.7,0.3,5.3,0.4,7.9c0.5,0,1,0.1,1.4,0.1
			c0,0.8,0.1,1.5,0.1,2.3c-0.5,0.1-1,0.2-1.5,0.3c0.1,1.6,0.2,3.2,0.2,4.8c-0.8,0-1.6,0.1-2.4,0.1c-0.1-1.2-0.1-2.3-0.2-3.4
			c-0.1-1.4-0.1-1.4-1.4-1.4c-0.1,0-0.1-0.1-0.2-0.1c0-0.7-0.1-1.4-0.1-2.2c0.5-0.1,1-0.1,1.4-0.2c-0.1-2.7-0.3-5.3-0.4-8
			c-0.5,0-1,0-1.5-0.1c0-0.8-0.1-1.5-0.1-2.3c0.5-0.1,1-0.1,1.4-0.2c-0.1-2.7-0.3-5.3-0.4-7.9c-0.5,0-1,0-1.4,0
			c0-0.8-0.1-1.5-0.1-2.3c0.5-0.1,1-0.1,1.4-0.2c-0.1-1.3-0.1-2.5-0.2-3.7c-0.6,0-1.1,0-1.7,0c-0.1-2.3-0.2-4.5-0.3-6.7
			c-0.9,0.1-1.8,0.2-2.7,0.4c-0.7,0.1-1.5,0.3-2.3,0.5c-0.9,1.6-1.6,3.3-2.2,5.3c-0.7,2.6-1.2,5.2-1.5,7.7c-0.3,2.5-0.5,4.3-0.6,5.5
			c-2.4-0.4-4.4-0.3-6,0.3c-1.7,0.7-3.1,1.7-4.3,3.1c-1.2,1.4-2.3,3-3.2,4.8c-0.9,1.8-1.8,3.7-2.7,5.6c-1.3-2-2.9-3.3-5-4.1
			c-1.7-0.7-3.6-0.9-5.5-1l0,0c0,0,0,0,0,0c-0.8,2.2-1.4,4.5-1.9,6.8c0,0,0,0,0,0.1c-0.2,1.1-0.4,2.1-0.5,3.2c0,0.1,0,0.3-0.1,0.4
			c-0.1,1.2-0.2,2.4-0.3,3.7c2.5-0.1,4.8-0.2,7.2-0.3c0.1,0.6,0.1,1.1,0.2,1.6c1.1-0.1,2.2-0.1,3.3-0.2c0-0.5,0-1,0-1.5
			c0.8,0,1.5-0.1,2.3-0.1c0.1,0.5,0.1,1,0.2,1.5c2.7-0.1,5.3-0.2,7.9-0.4c0-0.5,0.1-1,0.1-1.5c0.8,0,1.5-0.1,2.3-0.1
			c0.1,0.5,0.1,1,0.2,1.5c0,0,0.1,0,0.1,0c0.6-0.8,1.2-1.7,1.7-2.5c0.6-1,1-1.7,1.1-2.2c1.4,1,2.4,2.2,3,3.7
			c0.1,0.2,0.2,0.5,0.3,0.8c0.6,0,1.2-0.1,1.8-0.1c0-0.5,0.1-1,0.1-1.5c0.8,0,1.5-0.1,2.3-0.1c0.1,0.5,0.1,1,0.2,1.6
			c1.8-0.1,3.4-0.2,5-0.2c0,0.8,0.1,1.6,0.1,2.4c-1.7,0.1-3.4,0.2-5,0.2c0,0.5-0.1,1-0.1,1.4c-2,0.5-2.2,0.4-2.5-1.3
			c-0.4,0-0.9,0-1.3,0.1l0,0c0.1,0.4,0.1,0.8,0.2,1.2c0.1,2.5,0.4,5.3,0.8,8.3c0.4,3.1,0.7,6.2,0.9,9.5c0.2,3.3,0.1,6.3,0,9.2
			c-0.2,2.9-0.8,5.4-1.7,7.7c-0.7,1.3-1.3,2.4-1.9,3.1l0,0c0,0,0,0,0,0c4.3,1.6,8.7,2.4,13.1,2.4c-0.2-0.9-0.3-1.9-0.5-3.2
			c-0.3-2.1-0.5-4.3-0.5-6.5c0-2.3,0.2-4.4,0.8-6.5c0.4-1.5,1.1-2.6,2-3.6c0-0.4,0-0.7-0.1-1.1c-0.6,0-1.1,0-1.5-0.1
			c0-0.8-0.1-1.5-0.1-2.3c0.5-0.1,1-0.1,1.5-0.2c-0.1-2.7-0.3-5.3-0.4-7.9c-0.5,0-1,0-1.5-0.1c0-0.8-0.1-1.5-0.1-2.3
			c0.5-0.1,1-0.1,1.5-0.2c-0.1-1.7-0.2-3.3-0.2-5.1c0.5,0,0.8,0,1.1-0.1c1-0.2,1.4,0.1,1.4,1.2c0,1.3,0.1,2.6,0.2,3.9
			c0.6,0,1,0,1.5,0c0,0.8,0.1,1.5,0.1,2.3c-0.5,0.1-1,0.1-1.4,0.2c0.1,2.7,0.3,5.3,0.4,8c0.5,0,0.9,0,1.4,0c0,0.8,0.1,1.5,0.1,2.3
			c-0.5,0.1-0.9,0.1-1.4,0.2c0,0.3,0,0.5,0,0.8c0.3,0.2,0.6,0.5,1,0.7c0.4,0.4,0.8,0.8,1.2,1.2c0.3,0.4,0.5,0.7,0.5,1
			c0,0.2-0.1,0.5-0.2,1.1c-0.2,0.6-0.3,1.1-0.5,1.7c-0.2,0.5-0.3,1.1-0.5,1.6c0.1,0,0.2,0,0.3,0c0,0.8,0.1,1.5,0.1,2.3
			c-0.3,0-0.5,0.1-0.7,0.1l0,0c0,0.4,0,0.9,0,1.4c0,0.6,0,1.2,0,1.9c0.3,0,0.7,0,1,0c0.1,2.5,0.2,4.8,0.3,7.2
			c1.3-0.1,2.5-0.3,3.7-0.5c0.8-0.2,1.6-0.4,2.4-0.6c0.3-0.1,0.7-0.2,1-0.3c1.1-0.3,2.1-0.6,3.1-1c0.1,0,0.1,0,0.2-0.1
			C222.7,211.1,223.8,210.6,224.8,210.1C224.8,210.1,224.8,210.1,224.8,210.1z M206.3,172.5c-1,0-1.9-0.8-1.9-1.8
			c-0.1-1,0.8-2,1.9-2c1,0,1.9,0.8,2,1.8C208.2,171.5,207.3,172.5,206.3,172.5z"/>
		<path class="st1" d="M228.5,172.5c0,0-0.1,0-0.1,0l0,0C228.4,172.6,228.5,172.6,228.5,172.5c1,0.6,2.1,0.8,3.2,0.8
			c0.6,0,1.6-0.3,3-0.8c0.6-0.2,1.4-0.6,2-0.8c0-0.3-0.1-0.6-0.1-0.9c-2.7,0.1-5.4,0.3-8,0.4C228.6,171.7,228.5,172.1,228.5,172.5z"
			/>
		<path class="st1" d="M178.7,176c0.4,0,1.5-0.1,3.4-0.4c0.3-0.2,0.8-0.8,1.6-1.7c0.1-0.1,0.1-0.2,0.2-0.3c0-0.2,0-0.3-0.1-0.5
			c-2.7,0.1-5.3,0.3-8,0.4c0,0.5,0,1-0.1,1.4c-0.8,0-1.6,0.1-2.3,0.1c-0.1-0.5-0.1-1-0.2-1.4c-1.2,0.1-2.2,0.1-3.3,0.2
			c0,0.5,0,0.9,0,1.4c1.3,0.2,2.5,0.4,3.8,0.5C176,176,177.7,176.1,178.7,176z"/>
		<path class="st1" d="M227.7,215L227.7,215c-1.6,0.7-3.2,1.4-4.8,2c0.4,0,0.8,0,1.1,0l4-0.2C228,216.2,227.9,215.6,227.7,215
			L227.7,215z"/>
		<path class="st1" d="M194,218.5L194,218.5c-0.8-0.2-1.5-0.4-2.3-0.7c-0.5-0.2-1-0.3-1.5-0.5c-1.1-0.4-2.2-0.8-3.4-1.3c0,0,0,0,0,0
			c-0.1,0.7-0.2,1.8-0.1,3.2c0.5,0,1.5-0.1,2.9-0.3C191,218.8,192.4,218.7,194,218.5C194,218.5,194,218.5,194,218.5L194,218.5z"/>
		<path class="st1" d="M254.6,161.7l0-0.7c-0.1-0.1-0.1-0.3-0.2-0.6C254.4,160.8,254.5,161.2,254.6,161.7z"/>
	</g>
	<g>
		<path class="st1" d="M400.2,60.8c-2,3.6-4.3,6.9-5.7,10.5c-4.5,12.2,3.6,21.8,16.6,19.7c10.4-1.7,17.4-8.4,22.7-16.8
			c3.7-5.9,6.5-12.3,9.4-18.6c2.7-5.7,5.5-11.1,11.2-14.4c1.7-1,3.5-1.6,6.4-3c-0.9,2.1-1.4,3.2-1.8,4.3c-1.1,3.6-2.6,7.1-3,10.7
			c-0.8,7.9,4.1,12.4,11.7,10.2c6.5-1.9,13-4.5,18.9-7.9c16.5-9.5,28-24.2,38.9-39.4c2-2.8,4-5.7,6.6-9.5c-1.8,10-4.9,18.3-9,26.3
			c-8.7,16.8-21.8,28.9-39.1,36.7c-7.8,3.5-15.7,7-21.1,14.1c-1.9,2.5-3.8,5.3-4.8,8.3c-2.9,8,1.4,13.4,9.9,12.9
			c8.4-0.5,14.8-5,21.1-9.9c5.9-4.6,11.7-9.5,17.8-13.7c4.8-3.3,10.4-5.2,16.7-4.1c-0.2,0.5-0.2,1-0.4,1.1
			c-10.9,6.9-18,17.4-25.6,27.3c-8.5,11.1-17.9,21.1-31.3,26.4c-2.5,1-4.8,3-6.8,5c-2.6,2.7-3.5,6.1-1.7,9.7
			c1.9,3.9,5.4,6.1,9.6,5.1c4.7-1.1,9.6-2.6,13.6-5.1c6.3-4,11.9-9.1,17.9-13.6c5.2-3.9,10.7-7.3,17.5-7.7c3.3-0.2,6.4,0.2,8.7,2.8
			c-4.4,2.4-8.7,4.6-12.8,7.2c-10.3,6.6-16.9,16.1-21.2,27.4c-2.6,6.9-5.1,13.9-8.5,20.4c-6.9,13.1-19.3,16.9-32.9,17.6
			c-5.6,0.3-9.4-3.3-10.9-8c3.9-5.2,7.4-9.9,11.6-15.5c-4.2,0.4-6.9,0.9-9.6,0.9c-13.3-0.1-21.1-11.1-16.9-23.7
			c2.7-8,8.2-13.6,15.6-18.3c-11.6-4.5-13.7-13-10.6-24.7c-4.6,3.9-8.3,7.4-12.3,10.4c-6.8,5-14.5,8.1-23,8.4
			c-9,0.3-16.5-2.8-21.7-12c-4.6,9.7-8.7,18.6-12.9,27.5c-5.2-3.8-9-8.8-7.8-15.3c3.9-20.2,8.7-40.3,22.1-56.8
			c6.3-7.7,14.5-12.9,25-13.1C399.3,60.6,399.9,60.7,400.2,60.8z"/>
	</g>
</g>
</svg>
